<svg width="23" height="24" viewBox="0 0 23 24" fill="none" xmlns="http://www.w3.org/2000/svg">
<g clip-path="url(#clip0_7_243)">
<path fill-rule="evenodd" clip-rule="evenodd" d="M11.1675 0.163834C11.5555 -0.0538789 12.0332 -0.0538789 12.4206 0.163834C14.3377 1.23983 20.1068 4.47866 22.0245 5.55465C22.4125 5.7718 22.6514 6.17408 22.6514 6.6095C22.6514 8.76149 22.6514 15.2386 22.6514 17.3906C22.6514 17.826 22.4125 18.2283 22.0245 18.446C20.1074 19.522 14.3383 22.7608 12.4206 23.8368C12.0326 24.0545 11.5549 24.0545 11.1675 23.8368C9.25034 22.7608 3.48124 19.522 1.56354 18.446C1.17611 18.2283 0.937256 17.8266 0.937256 17.3911C0.937256 15.2392 0.937256 8.76206 0.937256 6.61008C0.937256 6.17465 1.17611 5.77237 1.56411 5.55465C3.48067 4.47866 9.25091 1.23983 11.1675 0.163834Z" fill="#00549D"/>
<path fill-rule="evenodd" clip-rule="evenodd" d="M1.11097 17.9452C0.95897 17.7418 0.937256 17.5486 0.937256 17.2886C0.937256 15.1492 0.937256 8.70925 0.937256 6.56926C0.937256 6.13612 1.17554 5.73612 1.56239 5.52012C3.47267 4.45042 9.22234 1.23044 11.1326 0.16016C11.5195 -0.0564101 12.0435 -0.0518387 12.4303 0.164731C14.3406 1.23444 20.0708 4.42699 21.9811 5.4967C22.1354 5.58355 22.2531 5.68812 22.3583 5.82584L1.11097 17.9452Z" fill="#0086D4"/>
<path fill-rule="evenodd" clip-rule="evenodd" d="M11.7943 4.00012C16.2097 4.00012 19.7943 7.58467 19.7943 12.0001C19.7943 16.4155 16.2097 20 11.7943 20C7.37892 20 3.79437 16.4155 3.79437 12.0001C3.79437 7.58467 7.37892 4.00012 11.7943 4.00012ZM11.7943 8.0001C14.0017 8.0001 15.7943 9.79208 15.7943 12.0001C15.7943 14.2075 14.0017 16 11.7943 16C9.58691 16 7.79435 14.2075 7.79435 12.0001C7.79435 9.79208 9.58633 8.0001 11.7943 8.0001Z" fill="white"/>
<path fill-rule="evenodd" clip-rule="evenodd" d="M22.3571 5.83154C22.652 6.10754 22.6463 6.52354 22.6463 6.85096C22.6463 9.01952 22.628 15.1875 22.6514 17.356C22.6537 17.5823 22.5788 17.8206 22.4668 18L11.5618 12.0001L22.3571 5.83154Z" fill="#0075C0"/>
<path fill-rule="evenodd" clip-rule="evenodd" d="M15.7943 10.2858H16.9372V13.7144H15.7943V10.2858ZM19.7943 10.2858H20.9371V13.7144H19.7943V10.2858Z" fill="white"/>
<path fill-rule="evenodd" clip-rule="evenodd" d="M14.6514 11.4286H18.08V12.5715H14.6514V11.4286ZM18.6514 11.4286H22.0799V12.5715H18.6514V11.4286Z" fill="white"/>
</g>
<defs>
<clipPath id="clip0_7_243">
<rect width="21.7142" height="24" fill="white" transform="translate(0.937256)"/>
</clipPath>
</defs>
</svg>
