<svg width="23" height="24" viewBox="0 0 23 24" fill="none" xmlns="http://www.w3.org/2000/svg">
<path d="M21.9913 0H0.517578L2.41231 21.4737L11.2544 24L20.0965 21.4737L21.9913 0Z" fill="#E65100"/>
<path d="M11.2544 1.89471V22.0421L18.3281 20.021L19.907 1.89471H11.2544Z" fill="#FF6D00"/>
<path d="M11.2544 12.6316V10.1052H16.686L16.2439 17.3684L11.2544 19.0105V16.3579L13.8439 15.4737L14.0333 12.6316H11.2544ZM16.8754 7.57893L17.0649 5.05261H11.2544V7.57893H16.8754Z" fill="white"/>
<path d="M11.2544 16.3579V19.0105L6.26491 17.3684L6.01228 13.8947H8.5386L8.66491 15.4737L11.2544 16.3579ZM8.15965 7.57893H11.2544V5.05261H5.50702L5.94912 12.6316H11.2544V10.1052H8.34912L8.15965 7.57893Z" fill="#EEEEEE"/>
</svg>
