<svg width="24" height="24" viewBox="0 0 24 24" fill="none" xmlns="http://www.w3.org/2000/svg">
<g clip-path="url(#clip0_7_190)">
<path d="M0 24V0H24V24H0Z" fill="#FFD600"/>
<path d="M15.692 17.9647C16.1533 18.714 16.6547 19.432 17.7167 19.432C18.6087 19.432 19.0767 18.9887 19.0767 18.3754C19.0767 17.6414 18.5927 17.3807 17.6113 16.9534L17.0733 16.724C15.5207 16.0654 14.488 15.24 14.488 13.4967C14.488 11.89 15.718 10.6674 17.64 10.6674C19.0087 10.6674 19.992 11.1414 20.7013 12.3827L19.0253 13.454C18.6566 12.7954 18.258 12.536 17.64 12.536C17.0093 12.536 16.61 12.934 16.61 13.454C16.61 14.0967 17.01 14.3567 17.9333 14.7547L18.4713 14.984C20.3013 15.7634 21.3333 16.5594 21.3333 18.3487C21.3333 20.2767 19.8107 21.3334 17.7667 21.3334C15.7673 21.3334 14.632 20.33 14 19.088L15.692 17.9647ZM7.96798 18.0194C8.30532 18.6234 8.81798 19.088 9.55532 19.088C10.2607 19.088 10.6667 18.8094 10.6667 17.726V10.6667H12.8887V18.0674C12.8887 20.312 11.5867 21.3334 9.68532 21.3334C7.96732 21.3334 6.72732 20.1694 6.22198 19.088L7.96798 18.0194Z" fill="#000001"/>
</g>
<defs>
<clipPath id="clip0_7_190">
<rect width="24" height="24" fill="white"/>
</clipPath>
</defs>
</svg>
