<svg width="35" height="24" viewBox="0 0 35 24" fill="none" xmlns="http://www.w3.org/2000/svg">
<path d="M17.697 0C8.86035 0 1.69702 4.86067 1.69702 10.8573C1.69702 16.854 8.86035 21.7147 17.697 21.7147C26.5337 21.7147 33.697 16.854 33.697 10.8573C33.697 4.86067 26.5337 0 17.697 0ZM19.3637 19.3333C12.5524 19.3333 7.03035 15.7513 7.03035 11.3333C7.03035 6.91533 12.5524 3.33333 19.3637 3.33333C26.175 3.33333 31.697 6.91533 31.697 11.3333C31.697 15.7513 26.175 19.3333 19.3637 19.3333Z" fill="url(#paint0_linear_7_206)"/>
<path d="M27.731 18.3127C27.3457 17.6827 26.773 17.2 26.103 16.9094C28.3703 16.3487 30.0537 14.3067 30.0537 11.8667C30.0537 8.99535 27.725 6.66669 24.8537 6.66669H15.031V24H19.653V17.0667H20.9563C21.601 17.0667 22.1937 17.4167 22.5037 17.982L25.8137 24H31.209L27.731 18.3127ZM19.6537 10.1334H23.6983C24.655 10.1334 25.4317 10.91 25.4317 11.8667C25.4317 12.8234 24.655 13.6 23.6983 13.6H19.6537V10.1334Z" fill="url(#paint1_linear_7_206)"/>
<defs>
<linearGradient id="paint0_linear_7_206" x1="6.87902" y1="0.634667" x2="21.5757" y2="14.522" gradientUnits="userSpaceOnUse">
<stop stop-color="#BEC1C4"/>
<stop offset="1" stop-color="#939399"/>
</linearGradient>
<linearGradient id="paint1_linear_7_206" x1="18.4463" y1="5.50069" x2="23.233" y2="19.5234" gradientUnits="userSpaceOnUse">
<stop offset="0.003" stop-color="#008DED"/>
<stop offset="1" stop-color="#0061A7"/>
</linearGradient>
</defs>
</svg>
