<svg width="23" height="24" viewBox="0 0 23 24" fill="none" xmlns="http://www.w3.org/2000/svg">
<g clip-path="url(#clip0_8_357)">
<path d="M11.2373 5.43043C10.2814 3.99687 10.0747 2.08097 10.0297 1.29365C7.60156 1.81872 5.18927 2.76058 5.32859 3.45424C5.34615 3.54146 5.4562 3.64624 5.63883 3.74809L5.35317 4.25911C5.00429 4.0636 4.8082 3.83824 4.75493 3.56897C4.59747 2.78399 5.48664 2.07394 7.4722 1.39785C8.8279 0.935992 10.1953 0.660284 10.2533 0.649162L10.6027 0.578918V0.936577C10.6027 0.961162 10.618 3.44663 11.7243 5.10614L11.2373 5.43043Z" fill="#CFD8DC"/>
<path d="M12.2131 24H12.0661C7.27081 24 1.93403 22.4938 1.3036 19.9733C0.91901 18.4337 2.17696 16.7327 4.94106 15.0556L5.24545 15.5555C2.75823 17.0652 1.55999 18.583 1.87199 19.8316C2.4193 22.0197 7.47686 23.3836 11.9128 23.414C12.4402 22.6255 15.2739 17.9935 13.6566 11.7811L14.2226 11.6335C16.0659 18.7118 12.3389 23.8308 12.3014 23.8817L12.2131 24Z" fill="#CFD8DC"/>
<path d="M3.53793 21.8376C3.22242 21.8376 3.06613 21.8031 3.04037 21.7967C2.93735 21.7715 2.85657 21.6925 2.82847 21.5906C2.79979 21.4888 2.82905 21.3793 2.90398 21.305C2.94613 21.2628 7.11686 17.0856 7.67998 13.7081L8.25715 13.8041C7.77305 16.7098 4.91179 20.0224 3.77559 21.2423C4.91061 21.1774 7.77656 20.6458 13.2784 17.5662C8.98476 17.0956 8.30574 13.6583 8.29871 13.6215L8.87413 13.5155C8.90164 13.6595 9.59179 17.0341 14.2852 17.0341C14.287 17.0341 14.2882 17.0341 14.2899 17.0341C14.4228 17.0341 14.5381 17.1231 14.5721 17.2507C14.6072 17.3783 14.551 17.5136 14.4369 17.5803C7.86027 21.3904 4.6712 21.8371 3.53793 21.8376Z" fill="#CFD8DC"/>
<path d="M6.2265 23.239C6.10533 23.239 5.99528 23.1641 5.95255 23.0488C5.9063 22.9253 5.94845 22.7854 6.05616 22.7081C6.07606 22.6935 7.11742 21.9249 8.22552 20.2332C7.79937 20.0447 7.36796 19.8246 6.94006 19.5676C6.42025 19.2556 6.02747 18.9208 5.7342 18.5777C4.22981 18.9746 2.84133 19.1315 1.62201 19.0279L1.67118 18.4449C2.76933 18.5379 4.01791 18.408 5.37128 18.0702C4.4505 16.4968 5.29577 14.935 5.30747 14.9139L5.81908 15.199C5.77986 15.2704 5.07859 16.5863 5.96484 17.911C7.25323 17.5411 8.62767 16.9937 10.0501 16.2825C10.3773 15.2084 10.6331 13.9867 10.7672 12.6088C10.7765 12.5145 10.8304 12.4308 10.9124 12.3834C10.9943 12.336 11.0944 12.3319 11.1804 12.3711C11.1992 12.3799 13.0911 13.2439 14.4608 13.8076C14.5603 13.8486 14.6294 13.9411 14.6405 14.0482C14.6523 14.1553 14.6037 14.2595 14.5141 14.3204C13.1742 15.2336 11.8431 16.0256 10.5465 16.6864C10.1356 17.9889 9.62689 19.073 9.10708 19.9592C11.2741 20.7688 13.1549 20.7811 13.1789 20.7811C13.3124 20.7811 13.4288 20.8712 13.4622 21.0006C13.4956 21.1299 13.4376 21.2652 13.3211 21.3301C10.6636 22.8064 6.43313 23.222 6.25459 23.239C6.24523 23.2384 6.23586 23.239 6.2265 23.239ZM8.79333 20.4685C8.18455 21.4133 7.5863 22.0917 7.13908 22.5348C8.30864 22.3627 10.3592 21.9857 12.0608 21.2827C11.246 21.1826 10.0665 20.9602 8.79333 20.4685ZM6.36874 18.3986C6.59879 18.6281 6.88562 18.8523 7.24094 19.0659C7.67177 19.3247 8.10903 19.5442 8.54045 19.7303C8.98181 18.9904 9.41908 18.1024 9.7943 17.0564C8.61128 17.6195 7.46279 18.0691 6.36874 18.3986ZM11.3063 13.0706C11.1863 14.1056 11.0013 15.0497 10.7719 15.9097C11.7436 15.3916 12.7352 14.7998 13.735 14.1383C12.8283 13.7543 11.8314 13.3077 11.3063 13.0706Z" fill="#CFD8DC"/>
<path d="M8.21673 5.03415C8.14825 5.03415 8.08034 5.00957 8.02649 4.96391C7.08405 4.15727 5.97478 2.51591 5.92795 2.44625C5.85244 2.33445 5.86415 2.18518 5.95488 2.08567C6.04503 1.98557 6.19371 1.96215 6.31078 2.02596C6.31722 2.02771 6.85986 2.25132 10.5354 2.86362C10.6413 2.88118 10.7285 2.95493 10.7637 3.05562C10.7994 3.1563 10.7765 3.26869 10.7051 3.3483C9.67605 4.49152 8.37595 4.99493 8.32093 5.01542C8.28698 5.02771 8.25127 5.03415 8.21673 5.03415ZM6.88386 2.77815C7.25322 3.27513 7.78532 3.94654 8.27234 4.39903C8.57146 4.26264 9.24229 3.9202 9.87859 3.34654C8.36659 3.0884 7.44405 2.90459 6.88386 2.77815Z" fill="#CFD8DC"/>
<path d="M10.5108 13.1122C10.471 13.1122 10.4306 13.104 10.3931 13.0876C10.2767 13.0361 10.2064 12.9155 10.2199 12.7891C10.3908 11.1799 7.92173 10.5342 7.89656 10.5284C7.7947 10.5026 7.71392 10.4236 7.68641 10.3223C7.6589 10.2211 7.68758 10.1122 7.76192 10.0378C7.88309 9.91667 10.7701 7.05365 14.3924 5.48136C14.4936 5.43745 14.6084 5.45384 14.6938 5.52233C14.7787 5.59141 14.8179 5.70204 14.7957 5.80858C14.1014 9.17092 10.8679 12.8587 10.7309 13.0138C10.6729 13.0776 10.5922 13.1122 10.5108 13.1122ZM8.52758 10.118C9.22065 10.3785 10.4347 10.9815 10.742 12.0825C11.5902 11.0242 13.4008 8.58614 14.0768 6.2675C11.5088 7.50262 9.34651 9.36526 8.52758 10.118Z" fill="#B71C1C"/>
<path d="M5.38065 15.4302L5.1026 14.9151C6.20484 14.321 7.46748 13.2275 8.50182 11.9567C7.62143 12.5596 7.11743 12.9723 7.10162 12.9857L6.72758 12.535C6.7504 12.5163 7.76016 11.688 9.4384 10.6501C9.89909 9.90906 10.2532 9.14691 10.4353 8.41637C10.4663 8.29228 10.4932 8.17228 10.5149 8.05637C9.38806 7.65423 8.34845 7.41598 7.63431 7.31355C7.52602 7.29833 7.43587 7.22398 7.39958 7.12155C7.36328 7.01911 7.38728 6.90437 7.46045 6.82476C7.51021 6.77091 8.69909 5.49716 10.1847 4.79764C10.3001 4.7432 10.4382 4.77013 10.5248 4.86437C10.5641 4.90711 11.3678 5.80974 11.1635 7.67706C11.8396 7.94047 12.5362 8.26067 13.207 8.64174C14.822 7.91589 16.656 7.26262 18.6093 6.86808C18.71 6.84818 18.8218 6.88447 18.8909 6.96642C18.9594 7.04837 18.9781 7.16135 18.9395 7.26086C18.1785 9.2113 16.1379 11.2946 16.0513 11.3824C15.9922 11.4421 15.9114 11.472 15.8271 11.4691C15.7434 11.4644 15.6661 11.4246 15.6134 11.359C14.9578 10.5348 14.1008 9.85228 13.1766 9.29676C11.9034 9.88447 10.776 10.5132 9.84933 11.0815C8.66689 12.9272 6.88211 14.6218 5.38065 15.4302ZM13.8175 9.01228C14.5726 9.4993 15.2757 10.0718 15.8569 10.7379C16.3416 10.2123 17.5047 8.8835 18.1645 7.56408C16.6132 7.92115 15.1451 8.43803 13.8175 9.01228ZM11.0704 8.26652C11.0511 8.36194 11.0288 8.45969 11.0043 8.5592C10.8813 9.05033 10.6858 9.55491 10.4353 10.0583C11.0768 9.69189 11.7869 9.31374 12.5531 8.9473C12.0626 8.6874 11.5621 8.46145 11.0704 8.26652ZM8.28933 6.83237C8.93967 6.95998 9.74104 7.16837 10.5963 7.46808C10.6852 6.38925 10.3937 5.72837 10.2175 5.43569C9.41206 5.85598 8.7067 6.4472 8.28933 6.83237Z" fill="#B71C1C"/>
<path d="M8.29053 9.65851C8.29053 12.2224 6.15395 14.2595 4.61444 15.7463C4.35688 15.998 3.48468 16.039 3.48468 16.039C3.70127 15.8166 3.94712 15.5824 4.21053 15.3307C5.67395 13.9141 7.70517 11.9766 7.70517 9.65851C7.70517 6.91315 6.59883 5.83022 5.72663 4.96388C5.34029 4.57168 5.01248 4.19705 4.81346 3.74047L4.99492 3.66437C5.19395 3.75217 5.42224 3.85168 5.59785 3.92778C5.73834 4.13266 5.92566 4.33168 6.14224 4.54827C7.03785 5.44388 8.29053 6.67315 8.29053 9.65851Z" fill="#B71C1C"/>
<path d="M22.8573 10.416C22.8573 10.416 22.5032 10.4663 22.4037 10.478C17.2759 11.0459 11.9841 12.521 8.95781 13.7327C7.86317 14.1717 6.72756 14.7044 5.69147 15.3015C5.68561 15.3073 5.67976 15.3073 5.66805 15.3132C5.05927 15.6644 3.5783 16.3902 2.3783 17.0283C4.13439 15.161 7.42415 13.721 8.73537 13.1941C11.7032 12.0059 16.8017 10.5717 21.8183 9.95707C21.2271 9.26634 19.7812 7.80292 16.9363 6.71414C15.2739 6.07024 12.7451 5.70731 10.5149 5.38536C6.96756 4.87609 4.94805 4.53658 4.75488 3.57073C4.71391 3.37756 4.74317 3.18439 4.83098 2.99707C5.02415 3.31317 5.29927 3.53561 5.48073 3.66439C5.56854 3.72292 5.63293 3.75805 5.65634 3.76975L5.6622 3.77561C6.49342 4.21463 8.73537 4.53658 10.6027 4.80585C12.8622 5.13366 15.4202 5.50244 17.1471 6.1639C21.1685 7.71512 22.5559 9.93366 22.6144 10.0273C22.6671 10.1151 22.8573 10.416 22.8573 10.416Z" fill="#B71C1C"/>
</g>
<defs>
<clipPath id="clip0_8_357">
<rect width="22.2439" height="24" fill="white" transform="translate(0.651489)"/>
</clipPath>
</defs>
</svg>
