<svg xmlns="http://www.w3.org/2000/svg" id="Layer_1" data-name="Layer 1" viewBox="0 0 172.332 50"><defs><style>.cls-1{fill:#134874}.cls-2{fill:#fff}</style></defs><path d="M5.967 0S0 0 0 6.057v37.976S0 50 5.967 50H43.94s6.058 0 6.058-5.967V6.057S50 0 43.941 0Z" class="cls-1"/><path d="M13.562 32.188h3.255V20.614h3.887v-2.711H9.765v2.711h3.797v11.574zM22.784 31.283a9.496 9.496 0 0 0 3.797.816c3.619 0 5.245-1.99 5.245-4.252 0-1.897-1.086-3.163-3.345-4.067-1.718-.723-2.442-1.086-2.442-1.99 0-.633.542-1.266 1.9-1.266a5.964 5.964 0 0 1 2.711.633l.633-2.53a7.502 7.502 0 0 0-3.344-.634c-3.075 0-4.973 1.718-4.973 4.069 0 1.988 1.445 3.255 3.615 4.068 1.629.633 2.262 1.084 2.262 1.9 0 .903-.724 1.537-2.08 1.537a6.958 6.958 0 0 1-3.345-.905l-.634 2.621ZM35.805 32.188h3.255V17.902h-3.255v14.286z" class="cls-2"/><path d="M60.384.794a2.413 2.413 0 0 1-.016.3.8.8 0 0 1-.046.202.278.278 0 0 1-.075.112.158.158 0 0 1-.101.037h-1.968V7.78a.163.163 0 0 1-.039.108.268.268 0 0 1-.13.078 1.246 1.246 0 0 1-.247.05 3.327 3.327 0 0 1-.386.019 3.368 3.368 0 0 1-.386-.019 1.256 1.256 0 0 1-.244-.05.249.249 0 0 1-.131-.078.162.162 0 0 1-.04-.108V1.445h-1.97a.147.147 0 0 1-.1-.037.278.278 0 0 1-.075-.112.91.91 0 0 1-.046-.201 3.019 3.019 0 0 1 0-.61.906.906 0 0 1 .046-.203.255.255 0 0 1 .074-.11.154.154 0 0 1 .102-.033h5.54a.166.166 0 0 1 .101.033.255.255 0 0 1 .075.11.798.798 0 0 1 .046.203 2.556 2.556 0 0 1 .016.309ZM67.145 7.791a.235.235 0 0 1-.025.114.2.2 0 0 1-.116.075 1.113 1.113 0 0 1-.267.043q-.174.013-.48.013c-.17 0-.306-.004-.406-.013a.967.967 0 0 1-.24-.045.278.278 0 0 1-.124-.085.512.512 0 0 1-.063-.125l-.702-1.756q-.128-.298-.25-.529a1.77 1.77 0 0 0-.27-.385 1.006 1.006 0 0 0-.343-.234 1.205 1.205 0 0 0-.45-.08h-.497v2.997a.174.174 0 0 1-.04.108.268.268 0 0 1-.13.078 1.286 1.286 0 0 1-.245.05 3.31 3.31 0 0 1-.388.019 3.368 3.368 0 0 1-.385-.019 1.245 1.245 0 0 1-.247-.05.236.236 0 0 1-.127-.078.172.172 0 0 1-.037-.108V.643a.484.484 0 0 1 .137-.386.498.498 0 0 1 .338-.118h2.034q.31 0 .51.012c.134.009.255.019.365.03a3.366 3.366 0 0 1 .854.231 2.05 2.05 0 0 1 .642.427 1.79 1.79 0 0 1 .405.627 2.29 2.29 0 0 1 .139.829 2.436 2.436 0 0 1-.1.72 1.845 1.845 0 0 1-.294.58 1.977 1.977 0 0 1-.481.444 2.597 2.597 0 0 1-.649.302 1.892 1.892 0 0 1 .332.207 1.772 1.772 0 0 1 .29.295 2.848 2.848 0 0 1 .259.394 5.118 5.118 0 0 1 .236.502l.662 1.548c.062.154.101.268.122.338a.636.636 0 0 1 .031.166Zm-2.06-5.332a1.157 1.157 0 0 0-.177-.656.95.95 0 0 0-.576-.377 1.824 1.824 0 0 0-.276-.047 3.8 3.8 0 0 0-.43-.02h-.714v2.23h.812a1.9 1.9 0 0 0 .595-.083 1.158 1.158 0 0 0 .425-.23A.937.937 0 0 0 65 2.92a1.186 1.186 0 0 0 .085-.462ZM74.756 7.404a2.231 2.231 0 0 1 .091.346.21.21 0 0 1-.05.19.385.385 0 0 1-.236.08 9.41 9.41 0 0 1-.952.006 1.342 1.342 0 0 1-.263-.036.249.249 0 0 1-.128-.077.465.465 0 0 1-.06-.128l-.529-1.578h-2.952l-.498 1.536a.5.5 0 0 1-.064.143.263.263 0 0 1-.127.092 1.007 1.007 0 0 1-.249.045q-.161.013-.422.013a4.01 4.01 0 0 1-.438-.019.324.324 0 0 1-.218-.089.23.23 0 0 1-.043-.197 2.08 2.08 0 0 1 .091-.34L70.133.419a.627.627 0 0 1 .085-.168.318.318 0 0 1 .155-.098 1.31 1.31 0 0 1 .295-.041 13.555 13.555 0 0 1 1.07 0 1.634 1.634 0 0 1 .33.041.31.31 0 0 1 .17.102.55.55 0 0 1 .088.182l2.43 6.967Zm-3.61-5.764h-.006l-1.11 3.34h2.228l-1.111-3.34ZM82.336 7.439a.646.646 0 0 1-.048.25.536.536 0 0 1-.13.18.511.511 0 0 1-.195.109.853.853 0 0 1-.228.033h-.68a1.358 1.358 0 0 1-.367-.044.714.714 0 0 1-.287-.153 1.332 1.332 0 0 1-.252-.305 5.152 5.152 0 0 1-.272-.495L77.92 3.34c-.112-.22-.228-.454-.346-.707-.116-.253-.222-.5-.315-.738h-.013q.025.435.037.87c.007.29.01.59.01.896v4.114a.18.18 0 0 1-.032.107.24.24 0 0 1-.114.083.911.911 0 0 1-.222.052 2.856 2.856 0 0 1-.359.019 2.796 2.796 0 0 1-.352-.019.865.865 0 0 1-.22-.052.23.23 0 0 1-.108-.083.194.194 0 0 1-.031-.107V.709a.531.531 0 0 1 .168-.427.602.602 0 0 1 .408-.143h.859a1.593 1.593 0 0 1 .387.04.815.815 0 0 1 .282.13.99.99 0 0 1 .235.253 3.121 3.121 0 0 1 .223.396L79.95 3.83l.263.514c.087.168.172.336.253.504l.236.496q.115.242.224.485h.006a37.276 37.276 0 0 1-.035-1.767V.375a.192.192 0 0 1 .035-.11.318.318 0 0 1 .123-.085.785.785 0 0 1 .224-.05 3.317 3.317 0 0 1 .358-.016 3.143 3.143 0 0 1 .346.016.674.674 0 0 1 .216.05.236.236 0 0 1 .106.085.204.204 0 0 1 .031.11v7.064ZM88.707 5.641a2.447 2.447 0 0 1-.23 1.089 2.241 2.241 0 0 1-.626.78 2.71 2.71 0 0 1-.923.47 4.219 4.219 0 0 1-1.886.09 4.249 4.249 0 0 1-.616-.159 2.72 2.72 0 0 1-.448-.199 1.227 1.227 0 0 1-.257-.182.433.433 0 0 1-.112-.226 2.062 2.062 0 0 1-.033-.43c0-.126.004-.23.01-.314a1.008 1.008 0 0 1 .04-.208.23.23 0 0 1 .074-.111.164.164 0 0 1 .106-.034.514.514 0 0 1 .24.1 3.891 3.891 0 0 0 .399.222 3.55 3.55 0 0 0 .578.221 2.777 2.777 0 0 0 .782.1 1.825 1.825 0 0 0 .522-.069 1.197 1.197 0 0 0 .392-.199.829.829 0 0 0 .245-.315.988.988 0 0 0 .085-.418.73.73 0 0 0-.146-.459 1.401 1.401 0 0 0-.379-.34 3.99 3.99 0 0 0-.53-.28c-.2-.087-.405-.18-.614-.275a5.65 5.65 0 0 1-.614-.332 2.546 2.546 0 0 1-.533-.444 2.102 2.102 0 0 1-.38-.61 2.207 2.207 0 0 1-.145-.845 2.247 2.247 0 0 1 .21-.993 2.007 2.007 0 0 1 .566-.71 2.398 2.398 0 0 1 .838-.422A3.661 3.661 0 0 1 86.346 0a3.624 3.624 0 0 1 .557.041 3.72 3.72 0 0 1 .523.117 2.897 2.897 0 0 1 .431.163.976.976 0 0 1 .249.152.443.443 0 0 1 .083.103.508.508 0 0 1 .035.112 1.145 1.145 0 0 1 .023.176c.002.07.004.16.004.266 0 .116-.002.215-.008.296a1.122 1.122 0 0 1-.031.201.213.213 0 0 1-.06.114.15.15 0 0 1-.106.038.514.514 0 0 1-.214-.085 4.712 4.712 0 0 0-.359-.185 3.11 3.11 0 0 0-.49-.182 2.12 2.12 0 0 0-.615-.083 1.42 1.42 0 0 0-.453.064.92.92 0 0 0-.326.176.698.698 0 0 0-.195.27.907.907 0 0 0-.064.333.74.74 0 0 0 .143.455 1.4 1.4 0 0 0 .383.34 3.782 3.782 0 0 0 .544.278c.203.087.408.18.62.277a6.531 6.531 0 0 1 .62.33 2.52 2.52 0 0 1 .538.444 2.094 2.094 0 0 1 .384.607 2.135 2.135 0 0 1 .145.823ZM95.31 2.525a3.089 3.089 0 0 1-.207 1.173 2.245 2.245 0 0 1-.601.859 2.652 2.652 0 0 1-.968.533 4.528 4.528 0 0 1-1.352.182h-.655v2.509a.174.174 0 0 1-.04.108.268.268 0 0 1-.13.078 1.286 1.286 0 0 1-.245.05 3.31 3.31 0 0 1-.388.019 3.368 3.368 0 0 1-.385-.019 1.244 1.244 0 0 1-.247-.05.236.236 0 0 1-.127-.078.172.172 0 0 1-.037-.108V.709a.567.567 0 0 1 .15-.427.543.543 0 0 1 .391-.143h1.852c.186 0 .365.006.533.02a5.868 5.868 0 0 1 .603.092 2.644 2.644 0 0 1 .713.259 2.077 2.077 0 0 1 .618.477 1.973 1.973 0 0 1 .388.673 2.63 2.63 0 0 1 .134.865Zm-1.67.116a1.405 1.405 0 0 0-.146-.68 1.02 1.02 0 0 0-.358-.396 1.189 1.189 0 0 0-.446-.16 3.323 3.323 0 0 0-.483-.033h-.68V4.04h.715a1.74 1.74 0 0 0 .64-.104 1.112 1.112 0 0 0 .424-.288 1.238 1.238 0 0 0 .248-.444 1.804 1.804 0 0 0 .085-.562ZM103.618 3.978a5.814 5.814 0 0 1-.243 1.748 3.506 3.506 0 0 1-.723 1.31 3.132 3.132 0 0 1-1.186.82 4.397 4.397 0 0 1-1.638.281 4.849 4.849 0 0 1-1.6-.238 2.763 2.763 0 0 1-1.139-.732 3.13 3.13 0 0 1-.684-1.252 6.308 6.308 0 0 1-.228-1.798 5.582 5.582 0 0 1 .244-1.716 3.511 3.511 0 0 1 .722-1.296A3.152 3.152 0 0 1 98.33.284 4.363 4.363 0 0 1 99.973 0a4.82 4.82 0 0 1 1.578.236 2.766 2.766 0 0 1 1.14.728 3.161 3.161 0 0 1 .692 1.244 5.91 5.91 0 0 1 .235 1.77Zm-1.675.085a6.05 6.05 0 0 0-.098-1.127 2.42 2.42 0 0 0-.332-.87 1.573 1.573 0 0 0-.621-.557 2.122 2.122 0 0 0-.973-.199 2.002 2.002 0 0 0-.985.222 1.84 1.84 0 0 0-.636.593 2.483 2.483 0 0 0-.344.865 5.336 5.336 0 0 0-.1 1.049 6.294 6.294 0 0 0 .098 1.156 2.482 2.482 0 0 0 .327.877 1.5 1.5 0 0 0 .62.556 2.194 2.194 0 0 0 .979.193 2.016 2.016 0 0 0 .983-.22 1.758 1.758 0 0 0 .638-.595 2.5 2.5 0 0 0 .342-.877 5.306 5.306 0 0 0 .102-1.066ZM110.794 7.791a.236.236 0 0 1-.025.114.2.2 0 0 1-.116.075 1.113 1.113 0 0 1-.268.043q-.174.013-.479.013c-.17 0-.307-.004-.406-.013a.968.968 0 0 1-.24-.045.278.278 0 0 1-.125-.085.512.512 0 0 1-.062-.125l-.703-1.756q-.128-.298-.249-.529a1.77 1.77 0 0 0-.271-.385 1.007 1.007 0 0 0-.343-.234 1.205 1.205 0 0 0-.45-.08h-.497v2.997a.174.174 0 0 1-.04.108.268.268 0 0 1-.13.078 1.286 1.286 0 0 1-.245.05 3.31 3.31 0 0 1-.387.019 3.368 3.368 0 0 1-.386-.019 1.245 1.245 0 0 1-.247-.05.236.236 0 0 1-.126-.078.172.172 0 0 1-.038-.108V.643a.484.484 0 0 1 .137-.386.498.498 0 0 1 .338-.118h2.034q.311 0 .51.012c.135.009.255.019.365.03a3.366 3.366 0 0 1 .854.231 2.05 2.05 0 0 1 .643.427 1.79 1.79 0 0 1 .404.627 2.29 2.29 0 0 1 .139.829 2.437 2.437 0 0 1-.1.72 1.846 1.846 0 0 1-.294.58 1.977 1.977 0 0 1-.48.444 2.597 2.597 0 0 1-.65.302 1.893 1.893 0 0 1 .332.207 1.773 1.773 0 0 1 .29.295 2.849 2.849 0 0 1 .26.394 5.127 5.127 0 0 1 .236.502l.661 1.548c.062.154.102.268.122.338a.635.635 0 0 1 .032.166Zm-2.061-5.332a1.157 1.157 0 0 0-.177-.656.95.95 0 0 0-.576-.377 1.824 1.824 0 0 0-.276-.047 3.8 3.8 0 0 0-.429-.02h-.715v2.23h.813a1.9 1.9 0 0 0 .595-.083 1.158 1.158 0 0 0 .425-.23.937.937 0 0 0 .255-.355 1.186 1.186 0 0 0 .085-.462ZM117.073.794a2.42 2.42 0 0 1-.016.3.8.8 0 0 1-.046.202.279.279 0 0 1-.074.112.158.158 0 0 1-.102.037h-1.967V7.78a.163.163 0 0 1-.04.108.268.268 0 0 1-.13.078 1.245 1.245 0 0 1-.247.05 3.327 3.327 0 0 1-.386.019 3.369 3.369 0 0 1-.385-.019 1.256 1.256 0 0 1-.245-.05.25.25 0 0 1-.13-.078.162.162 0 0 1-.04-.108V1.445h-1.97a.147.147 0 0 1-.101-.037.278.278 0 0 1-.075-.112.911.911 0 0 1-.046-.201 3.024 3.024 0 0 1 0-.61.907.907 0 0 1 .046-.203.255.255 0 0 1 .075-.11.154.154 0 0 1 .101-.033h5.54a.166.166 0 0 1 .102.033.255.255 0 0 1 .074.11.798.798 0 0 1 .046.203 2.563 2.563 0 0 1 .016.309ZM127.253 7.404a2.229 2.229 0 0 1 .092.346.21.21 0 0 1-.05.19.385.385 0 0 1-.237.08 9.41 9.41 0 0 1-.952.006 1.342 1.342 0 0 1-.263-.036.249.249 0 0 1-.128-.077.466.466 0 0 1-.06-.128l-.529-1.578h-2.952l-.498 1.536a.5.5 0 0 1-.064.143.263.263 0 0 1-.127.092 1.007 1.007 0 0 1-.248.045q-.162.013-.423.013a4.01 4.01 0 0 1-.438-.019.324.324 0 0 1-.217-.089.23.23 0 0 1-.044-.197 2.08 2.08 0 0 1 .091-.34L122.63.419a.627.627 0 0 1 .085-.168.318.318 0 0 1 .155-.098 1.31 1.31 0 0 1 .295-.041 13.552 13.552 0 0 1 1.07 0 1.635 1.635 0 0 1 .33.041.31.31 0 0 1 .17.102.551.551 0 0 1 .088.182l2.43 6.967Zm-3.61-5.764h-.006l-1.11 3.34h2.228l-1.111-3.34ZM134.833 7.439a.647.647 0 0 1-.048.25.537.537 0 0 1-.13.18.511.511 0 0 1-.195.109.853.853 0 0 1-.228.033h-.68a1.358 1.358 0 0 1-.367-.044.714.714 0 0 1-.286-.153 1.332 1.332 0 0 1-.253-.305 5.165 5.165 0 0 1-.272-.495l-1.957-3.674c-.112-.22-.228-.454-.346-.707-.116-.253-.222-.5-.315-.738h-.013q.025.435.037.87c.007.29.01.59.01.896v4.114a.18.18 0 0 1-.032.107.24.24 0 0 1-.114.083.911.911 0 0 1-.222.052 2.856 2.856 0 0 1-.359.019 2.796 2.796 0 0 1-.352-.019.865.865 0 0 1-.22-.052.23.23 0 0 1-.108-.083.194.194 0 0 1-.03-.107V.709a.531.531 0 0 1 .167-.427.602.602 0 0 1 .409-.143h.858a1.593 1.593 0 0 1 .388.04.814.814 0 0 1 .281.13.99.99 0 0 1 .235.253 3.129 3.129 0 0 1 .224.396l1.532 2.873.263.514c.087.168.172.336.253.504l.236.496q.115.242.224.485h.006a37.33 37.33 0 0 1-.035-1.767V.375a.192.192 0 0 1 .035-.11.318.318 0 0 1 .123-.085.784.784 0 0 1 .224-.05 3.318 3.318 0 0 1 .358-.016 3.143 3.143 0 0 1 .347.016.674.674 0 0 1 .215.05.236.236 0 0 1 .106.085.204.204 0 0 1 .031.11v7.064ZM143.076 3.954a5.37 5.37 0 0 1-.284 1.849 3.14 3.14 0 0 1-.81 1.254 3.249 3.249 0 0 1-1.284.713 6.32 6.32 0 0 1-1.801.228h-1.876a.498.498 0 0 1-.339-.118.484.484 0 0 1-.136-.385V.643a.484.484 0 0 1 .136-.386.498.498 0 0 1 .339-.118h2.015a5.64 5.64 0 0 1 1.783.247 3.24 3.24 0 0 1 1.233.727 3.121 3.121 0 0 1 .763 1.194 4.757 4.757 0 0 1 .262 1.647Zm-1.652.053a3.95 3.95 0 0 0-.13-1.038 2.209 2.209 0 0 0-.421-.832 1.919 1.919 0 0 0-.74-.55 2.981 2.981 0 0 0-1.189-.198h-.806v5.347h.831a3.166 3.166 0 0 0 1.105-.17 1.863 1.863 0 0 0 .75-.514 2.211 2.211 0 0 0 .45-.855 4.249 4.249 0 0 0 .15-1.19ZM60.384 12.836a2.411 2.411 0 0 1-.016.3.798.798 0 0 1-.046.201.278.278 0 0 1-.075.112.158.158 0 0 1-.101.037h-1.968v6.336a.163.163 0 0 1-.039.108.267.267 0 0 1-.13.08 1.246 1.246 0 0 1-.247.049 3.338 3.338 0 0 1-.386.018 3.38 3.38 0 0 1-.386-.018 1.256 1.256 0 0 1-.244-.05.249.249 0 0 1-.131-.079.162.162 0 0 1-.04-.108v-6.336h-1.97a.147.147 0 0 1-.1-.037.277.277 0 0 1-.075-.112.909.909 0 0 1-.046-.2 3.015 3.015 0 0 1 0-.61.907.907 0 0 1 .046-.204.255.255 0 0 1 .074-.11.154.154 0 0 1 .102-.033h5.54a.166.166 0 0 1 .101.034.256.256 0 0 1 .075.11.799.799 0 0 1 .046.203 2.556 2.556 0 0 1 .016.309ZM65.972 19.414a2.305 2.305 0 0 1-.015.294.768.768 0 0 1-.045.193.25.25 0 0 1-.077.106.159.159 0 0 1-.1.033h-3.947a.499.499 0 0 1-.338-.118.484.484 0 0 1-.137-.386v-6.852a.484.484 0 0 1 .137-.385.498.498 0 0 1 .338-.119h3.923a.162.162 0 0 1 .097.031.216.216 0 0 1 .072.106.804.804 0 0 1 .046.195 2.373 2.373 0 0 1 .017.3 2.28 2.28 0 0 1-.017.289.743.743 0 0 1-.046.19.238.238 0 0 1-.072.107.15.15 0 0 1-.097.033h-2.806v1.92h2.374a.179.179 0 0 1 .102.032.273.273 0 0 1 .075.104.707.707 0 0 1 .045.189 2.916 2.916 0 0 1 0 .58.675.675 0 0 1-.045.185.216.216 0 0 1-.075.1.178.178 0 0 1-.102.03h-2.374v2.217h2.83a.163.163 0 0 1 .1.035.227.227 0 0 1 .077.106.73.73 0 0 1 .045.19 2.33 2.33 0 0 1 .015.295ZM71.7 19.372a2.534 2.534 0 0 1-.014.307.883.883 0 0 1-.046.206.248.248 0 0 1-.077.118.161.161 0 0 1-.106.037h-3.6a.499.499 0 0 1-.339-.118.485.485 0 0 1-.136-.386v-7.138a.162.162 0 0 1 .04-.108.265.265 0 0 1 .13-.079 1.264 1.264 0 0 1 .246-.05 3.376 3.376 0 0 1 .386-.018 3.332 3.332 0 0 1 .388.019 1.252 1.252 0 0 1 .242.05.248.248 0 0 1 .13.078.164.164 0 0 1 .042.108v6.324h2.471a.182.182 0 0 1 .106.033.25.25 0 0 1 .077.11.823.823 0 0 1 .045.2 2.515 2.515 0 0 1 .015.307ZM77.3 19.414a2.303 2.303 0 0 1-.015.294.768.768 0 0 1-.045.193.251.251 0 0 1-.077.106.159.159 0 0 1-.1.033h-3.947a.499.499 0 0 1-.338-.118.484.484 0 0 1-.137-.386v-6.852a.484.484 0 0 1 .137-.385.498.498 0 0 1 .338-.119h3.923a.162.162 0 0 1 .097.031.216.216 0 0 1 .073.106.802.802 0 0 1 .045.195 2.371 2.371 0 0 1 .017.3 2.279 2.279 0 0 1-.017.289.74.74 0 0 1-.045.19.238.238 0 0 1-.073.107.15.15 0 0 1-.097.033h-2.806v1.92h2.374a.179.179 0 0 1 .102.032.273.273 0 0 1 .075.104.707.707 0 0 1 .045.189 2.916 2.916 0 0 1 0 .58.675.675 0 0 1-.045.185.216.216 0 0 1-.075.1.178.178 0 0 1-.102.03h-2.374v2.217h2.83a.163.163 0 0 1 .1.035.228.228 0 0 1 .077.106.731.731 0 0 1 .045.19 2.328 2.328 0 0 1 .015.295ZM83.963 18.85c0 .102-.002.187-.008.257a1.553 1.553 0 0 1-.027.183.479.479 0 0 1-.05.13.579.579 0 0 1-.097.125 1.268 1.268 0 0 1-.257.18 3.067 3.067 0 0 1-.469.21 4.26 4.26 0 0 1-1.4.234 4.05 4.05 0 0 1-1.457-.251 2.87 2.87 0 0 1-1.105-.742 3.322 3.322 0 0 1-.699-1.238 5.544 5.544 0 0 1-.244-1.725 5.459 5.459 0 0 1 .267-1.78 3.69 3.69 0 0 1 .749-1.305 3.12 3.12 0 0 1 1.15-.803 3.88 3.88 0 0 1 1.479-.273 3.498 3.498 0 0 1 .632.056 3.555 3.555 0 0 1 .562.143 2.768 2.768 0 0 1 .464.203 1.417 1.417 0 0 1 .288.197.562.562 0 0 1 .112.137.516.516 0 0 1 .05.139 1.624 1.624 0 0 1 .027.2 4.239 4.239 0 0 1-.002.595.797.797 0 0 1-.044.208.27.27 0 0 1-.072.114.143.143 0 0 1-.098.038.423.423 0 0 1-.23-.106 3.722 3.722 0 0 0-.363-.239 2.915 2.915 0 0 0-.526-.236 2.269 2.269 0 0 0-.734-.106 1.727 1.727 0 0 0-1.46.738 2.556 2.556 0 0 0-.391.859 4.983 4.983 0 0 0 .008 2.336 2.333 2.333 0 0 0 .408.836 1.666 1.666 0 0 0 .637.49 2.142 2.142 0 0 0 .842.159 2.4 2.4 0 0 0 .733-.1 3.028 3.028 0 0 0 .533-.222 4.177 4.177 0 0 0 .365-.22.447.447 0 0 1 .222-.095.163.163 0 0 1 .095.023.188.188 0 0 1 .062.098.944.944 0 0 1 .036.203c.008.087.012.203.012.35ZM92.09 16.02a5.815 5.815 0 0 1-.242 1.748 3.507 3.507 0 0 1-.724 1.31 3.135 3.135 0 0 1-1.186.82 4.398 4.398 0 0 1-1.638.28 4.847 4.847 0 0 1-1.6-.237 2.762 2.762 0 0 1-1.138-.732 3.13 3.13 0 0 1-.685-1.252 6.308 6.308 0 0 1-.228-1.798 5.582 5.582 0 0 1 .245-1.717 3.51 3.51 0 0 1 .721-1.295 3.152 3.152 0 0 1 1.188-.821 4.363 4.363 0 0 1 1.642-.284 4.82 4.82 0 0 1 1.578.236 2.766 2.766 0 0 1 1.14.728 3.162 3.162 0 0 1 .693 1.244 5.91 5.91 0 0 1 .234 1.77Zm-1.675.085a6.05 6.05 0 0 0-.097-1.128 2.42 2.42 0 0 0-.332-.868 1.572 1.572 0 0 0-.622-.558 2.122 2.122 0 0 0-.972-.2 2.002 2.002 0 0 0-.985.223 1.839 1.839 0 0 0-.637.593 2.482 2.482 0 0 0-.344.864 5.335 5.335 0 0 0-.1 1.05 6.293 6.293 0 0 0 .098 1.156 2.483 2.483 0 0 0 .328.877 1.5 1.5 0 0 0 .62.556 2.194 2.194 0 0 0 .978.193 2.015 2.015 0 0 0 .983-.22 1.759 1.759 0 0 0 .638-.595 2.5 2.5 0 0 0 .342-.877 5.305 5.305 0 0 0 .102-1.066ZM102.593 19.822a.18.18 0 0 1-.033.108.223.223 0 0 1-.122.08 1.17 1.17 0 0 1-.232.049 3.09 3.09 0 0 1-.371.018 3.019 3.019 0 0 1-.365-.018 1.085 1.085 0 0 1-.23-.05.24.24 0 0 1-.123-.079.17.17 0 0 1-.035-.108v-6.395h-.012l-2.279 6.39a.3.3 0 0 1-.079.13.421.421 0 0 1-.149.08.983.983 0 0 1-.24.04c-.096.006-.214.01-.35.01a3.408 3.408 0 0 1-.353-.016 1.062 1.062 0 0 1-.24-.048.462.462 0 0 1-.15-.083.241.241 0 0 1-.073-.114l-2.2-6.39h-.01v6.396a.183.183 0 0 1-.035.108.213.213 0 0 1-.124.08 1.207 1.207 0 0 1-.233.049 2.999 2.999 0 0 1-.368.018 2.96 2.96 0 0 1-.363-.018 1.16 1.16 0 0 1-.234-.05.221.221 0 0 1-.123-.079.179.179 0 0 1-.033-.108V12.82a.642.642 0 0 1 .164-.475.59.59 0 0 1 .437-.164h1.045a2.14 2.14 0 0 1 .479.046.93.93 0 0 1 .346.152.873.873 0 0 1 .245.28 2.1 2.1 0 0 1 .17.426l1.7 4.684h.025l1.76-4.671a2.66 2.66 0 0 1 .174-.431 1 1 0 0 1 .218-.284.725.725 0 0 1 .294-.156 1.524 1.524 0 0 1 .396-.046h1.074a.88.88 0 0 1 .284.042.467.467 0 0 1 .193.127.522.522 0 0 1 .116.199.847.847 0 0 1 .04.271v7.003ZM113.466 19.822a.18.18 0 0 1-.033.108.223.223 0 0 1-.123.08 1.169 1.169 0 0 1-.232.049 3.09 3.09 0 0 1-.371.018 3.019 3.019 0 0 1-.365-.018 1.085 1.085 0 0 1-.23-.05.24.24 0 0 1-.123-.079.17.17 0 0 1-.035-.108v-6.395h-.012l-2.279 6.39a.3.3 0 0 1-.079.13.422.422 0 0 1-.149.08.983.983 0 0 1-.24.04c-.096.006-.214.01-.35.01a3.408 3.408 0 0 1-.353-.016 1.062 1.062 0 0 1-.24-.048.462.462 0 0 1-.15-.083.241.241 0 0 1-.073-.114l-2.2-6.39h-.01v6.396a.183.183 0 0 1-.035.108.213.213 0 0 1-.124.08 1.205 1.205 0 0 1-.232.049 3 3 0 0 1-.37.018 2.961 2.961 0 0 1-.362-.018 1.16 1.16 0 0 1-.234-.05.221.221 0 0 1-.123-.079.179.179 0 0 1-.033-.108V12.82a.642.642 0 0 1 .164-.475.59.59 0 0 1 .437-.164h1.045a2.14 2.14 0 0 1 .48.046.93.93 0 0 1 .345.152.873.873 0 0 1 .245.28 2.104 2.104 0 0 1 .17.426l1.7 4.684h.025l1.76-4.671a2.66 2.66 0 0 1 .174-.431.998.998 0 0 1 .218-.284.725.725 0 0 1 .294-.156 1.524 1.524 0 0 1 .396-.046h1.074a.88.88 0 0 1 .284.042.467.467 0 0 1 .193.127.52.52 0 0 1 .116.199.847.847 0 0 1 .04.271v7.003ZM121.593 17.113a3.665 3.665 0 0 1-.214 1.293 2.559 2.559 0 0 1-.624.966 2.736 2.736 0 0 1-1.022.602 4.876 4.876 0 0 1-2.726.02 2.597 2.597 0 0 1-.997-.561 2.485 2.485 0 0 1-.623-.94 3.67 3.67 0 0 1-.215-1.314v-4.78a.172.172 0 0 1 .037-.109.234.234 0 0 1 .13-.079 1.34 1.34 0 0 1 .245-.05 3.375 3.375 0 0 1 .39-.018 3.242 3.242 0 0 1 .382.019 1.306 1.306 0 0 1 .244.05.268.268 0 0 1 .131.078.174.174 0 0 1 .04.108v4.642a2.574 2.574 0 0 0 .113.81 1.506 1.506 0 0 0 .332.569 1.362 1.362 0 0 0 .516.336 1.922 1.922 0 0 0 .672.114 1.859 1.859 0 0 0 .674-.117 1.306 1.306 0 0 0 .504-.337 1.49 1.49 0 0 0 .319-.545 2.268 2.268 0 0 0 .112-.739v-4.733a.172.172 0 0 1 .037-.108.235.235 0 0 1 .127-.079 1.3 1.3 0 0 1 .246-.05 3.375 3.375 0 0 1 .386-.018 3.207 3.207 0 0 1 .38.019 1.286 1.286 0 0 1 .24.05.234.234 0 0 1 .126.078.17.17 0 0 1 .038.108v4.715ZM129.78 19.48a.647.647 0 0 1-.048.251.538.538 0 0 1-.13.18.513.513 0 0 1-.195.108.853.853 0 0 1-.228.034h-.68a1.358 1.358 0 0 1-.367-.044.714.714 0 0 1-.286-.153 1.33 1.33 0 0 1-.253-.305 5.157 5.157 0 0 1-.272-.496l-1.957-3.673a23.26 23.26 0 0 1-.346-.707c-.116-.253-.222-.5-.315-.739h-.013q.025.436.038.871c.006.29.01.59.01.896v4.113a.18.18 0 0 1-.033.108.24.24 0 0 1-.114.083.914.914 0 0 1-.222.052 2.866 2.866 0 0 1-.359.018 2.806 2.806 0 0 1-.352-.018.868.868 0 0 1-.22-.052.23.23 0 0 1-.108-.083.194.194 0 0 1-.03-.108v-7.065a.531.531 0 0 1 .167-.428.602.602 0 0 1 .409-.143h.858a1.592 1.592 0 0 1 .388.04.812.812 0 0 1 .282.13.99.99 0 0 1 .234.253 3.133 3.133 0 0 1 .224.396l1.532 2.874.263.514c.087.168.172.336.253.504l.237.495q.114.243.223.486h.007a37.436 37.436 0 0 1-.036-1.767v-3.688a.192.192 0 0 1 .036-.11.32.32 0 0 1 .122-.085.783.783 0 0 1 .224-.05 3.3 3.3 0 0 1 .359-.016 3.127 3.127 0 0 1 .346.016.672.672 0 0 1 .215.05.236.236 0 0 1 .106.085.204.204 0 0 1 .031.11v7.063ZM133.097 19.822a.164.164 0 0 1-.041.108.248.248 0 0 1-.13.08 1.233 1.233 0 0 1-.243.049 3.344 3.344 0 0 1-.388.018 3.39 3.39 0 0 1-.386-.018 1.246 1.246 0 0 1-.246-.05.265.265 0 0 1-.13-.079.162.162 0 0 1-.04-.108v-7.424a.162.162 0 0 1 .04-.108.262.262 0 0 1 .134-.079 1.314 1.314 0 0 1 .244-.05 4.017 4.017 0 0 1 .772 0 1.251 1.251 0 0 1 .242.05.248.248 0 0 1 .13.08.164.164 0 0 1 .042.107v7.424ZM140.246 18.85c0 .102-.002.187-.008.257a1.55 1.55 0 0 1-.027.183.48.48 0 0 1-.05.13.579.579 0 0 1-.097.125 1.266 1.266 0 0 1-.257.18 3.068 3.068 0 0 1-.47.21 4.26 4.26 0 0 1-1.398.234 4.05 4.05 0 0 1-1.458-.251 2.871 2.871 0 0 1-1.105-.742 3.323 3.323 0 0 1-.699-1.238 5.544 5.544 0 0 1-.244-1.725 5.458 5.458 0 0 1 .267-1.78 3.689 3.689 0 0 1 .749-1.305 3.121 3.121 0 0 1 1.15-.803 3.88 3.88 0 0 1 1.478-.273 3.499 3.499 0 0 1 .633.056 3.553 3.553 0 0 1 .562.143 2.764 2.764 0 0 1 .464.203 1.415 1.415 0 0 1 .288.197.562.562 0 0 1 .112.137.517.517 0 0 1 .05.139 1.623 1.623 0 0 1 .027.2 4.233 4.233 0 0 1-.002.595.797.797 0 0 1-.044.208.27.27 0 0 1-.072.114.143.143 0 0 1-.098.038.423.423 0 0 1-.23-.106 3.721 3.721 0 0 0-.363-.239 2.914 2.914 0 0 0-.526-.236 2.269 2.269 0 0 0-.734-.106 1.727 1.727 0 0 0-1.46.738 2.556 2.556 0 0 0-.392.859 4.983 4.983 0 0 0 .009 2.336 2.334 2.334 0 0 0 .408.836 1.665 1.665 0 0 0 .637.49 2.141 2.141 0 0 0 .841.159 2.399 2.399 0 0 0 .734-.1 3.027 3.027 0 0 0 .533-.222 4.179 4.179 0 0 0 .365-.22.447.447 0 0 1 .222-.095.163.163 0 0 1 .095.023.188.188 0 0 1 .062.098.944.944 0 0 1 .035.203c.009.087.013.203.013.35ZM147.834 19.445a2.23 2.23 0 0 1 .091.346.21.21 0 0 1-.05.191.385.385 0 0 1-.236.079 9.408 9.408 0 0 1-.952.006 1.337 1.337 0 0 1-.263-.035.248.248 0 0 1-.128-.077.463.463 0 0 1-.06-.128l-.53-1.578h-2.951l-.498 1.536a.499.499 0 0 1-.064.143.263.263 0 0 1-.127.091 1.007 1.007 0 0 1-.249.046q-.161.013-.423.012a4.024 4.024 0 0 1-.437-.018.324.324 0 0 1-.218-.09.23.23 0 0 1-.043-.196 2.084 2.084 0 0 1 .091-.34l2.424-6.973a.631.631 0 0 1 .085-.168.319.319 0 0 1 .155-.097 1.31 1.31 0 0 1 .295-.042 13.435 13.435 0 0 1 1.07 0 1.635 1.635 0 0 1 .329.042.31.31 0 0 1 .17.101.55.55 0 0 1 .09.183l2.43 6.966Zm-3.61-5.763h-.006l-1.111 3.34h2.229l-1.112-3.34ZM153.191 12.836a2.405 2.405 0 0 1-.016.3.795.795 0 0 1-.046.201.278.278 0 0 1-.075.112.158.158 0 0 1-.101.037h-1.968v6.336a.163.163 0 0 1-.039.108.267.267 0 0 1-.13.08 1.245 1.245 0 0 1-.247.049 3.339 3.339 0 0 1-.386.018 3.38 3.38 0 0 1-.385-.018 1.256 1.256 0 0 1-.245-.05.249.249 0 0 1-.13-.079.162.162 0 0 1-.04-.108v-6.336h-1.97a.147.147 0 0 1-.101-.037.277.277 0 0 1-.075-.112.91.91 0 0 1-.046-.2 3.021 3.021 0 0 1 0-.61.908.908 0 0 1 .046-.204.255.255 0 0 1 .075-.11.154.154 0 0 1 .101-.033h5.54a.166.166 0 0 1 .101.034.256.256 0 0 1 .075.11.796.796 0 0 1 .046.203 2.549 2.549 0 0 1 .016.309ZM155.725 19.822a.164.164 0 0 1-.041.108.247.247 0 0 1-.131.08 1.232 1.232 0 0 1-.243.049 3.345 3.345 0 0 1-.387.018 3.388 3.388 0 0 1-.386-.018 1.245 1.245 0 0 1-.247-.05.265.265 0 0 1-.13-.079.162.162 0 0 1-.04-.108v-7.424a.162.162 0 0 1 .04-.108.261.261 0 0 1 .134-.079 1.314 1.314 0 0 1 .245-.05 4.017 4.017 0 0 1 .771 0 1.25 1.25 0 0 1 .243.05.248.248 0 0 1 .13.08.164.164 0 0 1 .042.107v7.424ZM164.507 16.02a5.815 5.815 0 0 1-.242 1.748 3.507 3.507 0 0 1-.724 1.31 3.135 3.135 0 0 1-1.186.82 4.398 4.398 0 0 1-1.638.28 4.847 4.847 0 0 1-1.6-.237 2.762 2.762 0 0 1-1.138-.732 3.13 3.13 0 0 1-.685-1.252 6.308 6.308 0 0 1-.228-1.798 5.583 5.583 0 0 1 .245-1.717 3.511 3.511 0 0 1 .721-1.295 3.153 3.153 0 0 1 1.188-.821 4.363 4.363 0 0 1 1.642-.284 4.82 4.82 0 0 1 1.578.236 2.766 2.766 0 0 1 1.14.728 3.162 3.162 0 0 1 .693 1.244 5.912 5.912 0 0 1 .234 1.77Zm-1.675.085a6.045 6.045 0 0 0-.097-1.128 2.42 2.42 0 0 0-.332-.868 1.572 1.572 0 0 0-.622-.558 2.122 2.122 0 0 0-.972-.2 2.002 2.002 0 0 0-.985.223 1.839 1.839 0 0 0-.637.593 2.482 2.482 0 0 0-.344.864 5.335 5.335 0 0 0-.1 1.05 6.296 6.296 0 0 0 .098 1.156 2.483 2.483 0 0 0 .328.877 1.5 1.5 0 0 0 .62.556 2.193 2.193 0 0 0 .978.193 2.016 2.016 0 0 0 .983-.22 1.759 1.759 0 0 0 .638-.595 2.502 2.502 0 0 0 .342-.877 5.305 5.305 0 0 0 .102-1.066ZM172.332 19.48a.647.647 0 0 1-.048.251.537.537 0 0 1-.13.18.512.512 0 0 1-.195.108.852.852 0 0 1-.228.034h-.68a1.358 1.358 0 0 1-.367-.044.714.714 0 0 1-.287-.153 1.33 1.33 0 0 1-.252-.305 5.157 5.157 0 0 1-.272-.496l-1.957-3.673c-.112-.22-.228-.455-.346-.707-.116-.253-.222-.5-.315-.739h-.013q.025.436.037.871c.007.29.01.59.01.896v4.113a.18.18 0 0 1-.033.108.24.24 0 0 1-.114.083.914.914 0 0 1-.221.052 2.866 2.866 0 0 1-.359.018 2.807 2.807 0 0 1-.353-.018.868.868 0 0 1-.22-.052.23.23 0 0 1-.107-.083.193.193 0 0 1-.031-.108v-7.065a.531.531 0 0 1 .168-.428.602.602 0 0 1 .408-.143h.859a1.593 1.593 0 0 1 .387.04.813.813 0 0 1 .282.13.988.988 0 0 1 .235.253 3.125 3.125 0 0 1 .223.396l1.533 2.874.263.514c.087.168.172.336.253.504l.236.495q.115.243.224.486h.006a37.118 37.118 0 0 1-.035-1.767v-3.688a.192.192 0 0 1 .035-.11.318.318 0 0 1 .123-.085.783.783 0 0 1 .224-.05 3.299 3.299 0 0 1 .358-.016 3.126 3.126 0 0 1 .346.016.672.672 0 0 1 .216.05.237.237 0 0 1 .106.085.204.204 0 0 1 .031.11v7.063ZM56.758 31.864a.164.164 0 0 1-.041.108.248.248 0 0 1-.131.079 1.242 1.242 0 0 1-.243.05 3.347 3.347 0 0 1-.387.018 3.392 3.392 0 0 1-.386-.019 1.254 1.254 0 0 1-.247-.05.266.266 0 0 1-.13-.078.162.162 0 0 1-.04-.108V24.44a.162.162 0 0 1 .04-.108.262.262 0 0 1 .134-.08 1.324 1.324 0 0 1 .245-.049 4.03 4.03 0 0 1 .771 0 1.26 1.26 0 0 1 .243.05.248.248 0 0 1 .13.079.164.164 0 0 1 .042.108v7.424ZM64.952 31.522a.646.646 0 0 1-.048.25.537.537 0 0 1-.13.181.511.511 0 0 1-.196.108.852.852 0 0 1-.228.033h-.68a1.358 1.358 0 0 1-.367-.043.715.715 0 0 1-.286-.154 1.33 1.33 0 0 1-.253-.305 5.168 5.168 0 0 1-.271-.495l-1.957-3.674c-.112-.22-.228-.454-.347-.707a14.08 14.08 0 0 1-.315-.738h-.012q.024.435.037.87c.006.29.01.59.01.896v4.114a.18.18 0 0 1-.033.107.24.24 0 0 1-.114.083.92.92 0 0 1-.222.052 2.868 2.868 0 0 1-.358.019 2.808 2.808 0 0 1-.353-.019.871.871 0 0 1-.22-.052.23.23 0 0 1-.107-.083.193.193 0 0 1-.031-.107v-7.066a.531.531 0 0 1 .168-.427.602.602 0 0 1 .408-.143h.858a1.59 1.59 0 0 1 .388.04.815.815 0 0 1 .282.13.99.99 0 0 1 .234.253 3.12 3.12 0 0 1 .224.396l1.532 2.873.264.515c.087.167.172.335.252.503l.237.496q.115.242.224.485h.006a37.303 37.303 0 0 1-.035-1.766v-3.689a.192.192 0 0 1 .035-.11.32.32 0 0 1 .122-.085.782.782 0 0 1 .224-.05 3.301 3.301 0 0 1 .359-.016 3.128 3.128 0 0 1 .346.017.672.672 0 0 1 .216.05.237.237 0 0 1 .105.084.204.204 0 0 1 .032.11v7.064ZM71.323 29.724a2.446 2.446 0 0 1-.23 1.089 2.24 2.24 0 0 1-.627.78 2.708 2.708 0 0 1-.922.47 4.216 4.216 0 0 1-1.887.091 4.249 4.249 0 0 1-.615-.16 2.72 2.72 0 0 1-.448-.199 1.224 1.224 0 0 1-.257-.182.432.432 0 0 1-.112-.226 2.064 2.064 0 0 1-.033-.43c0-.126.004-.23.01-.314a1.007 1.007 0 0 1 .04-.208.23.23 0 0 1 .074-.111.164.164 0 0 1 .106-.034.514.514 0 0 1 .24.1 3.879 3.879 0 0 0 .398.222 3.55 3.55 0 0 0 .579.221 2.773 2.773 0 0 0 .781.1 1.827 1.827 0 0 0 .523-.069 1.197 1.197 0 0 0 .391-.199.83.83 0 0 0 .245-.315.988.988 0 0 0 .085-.418.73.73 0 0 0-.145-.459 1.4 1.4 0 0 0-.38-.34 3.984 3.984 0 0 0-.53-.28c-.2-.087-.404-.18-.614-.275a5.65 5.65 0 0 1-.613-.332 2.545 2.545 0 0 1-.533-.444 2.1 2.1 0 0 1-.38-.61 2.207 2.207 0 0 1-.145-.845 2.247 2.247 0 0 1 .21-.993 2.007 2.007 0 0 1 .566-.71 2.398 2.398 0 0 1 .837-.422 3.661 3.661 0 0 1 1.024-.139 3.624 3.624 0 0 1 .558.041 3.739 3.739 0 0 1 .523.117 2.907 2.907 0 0 1 .43.163.977.977 0 0 1 .25.152.443.443 0 0 1 .083.103.507.507 0 0 1 .035.112 1.142 1.142 0 0 1 .023.176c.002.071.004.16.004.266 0 .116-.002.215-.009.296a1.122 1.122 0 0 1-.03.201.213.213 0 0 1-.061.114.15.15 0 0 1-.106.038.514.514 0 0 1-.213-.085 4.689 4.689 0 0 0-.359-.185 3.107 3.107 0 0 0-.491-.182 2.122 2.122 0 0 0-.614-.083 1.42 1.42 0 0 0-.454.064.919.919 0 0 0-.325.176.698.698 0 0 0-.195.27.908.908 0 0 0-.065.334.74.74 0 0 0 .143.454 1.4 1.4 0 0 0 .384.34 3.787 3.787 0 0 0 .543.278c.203.087.409.18.62.277a6.562 6.562 0 0 1 .62.33 2.521 2.521 0 0 1 .539.444 2.094 2.094 0 0 1 .384.607 2.135 2.135 0 0 1 .145.823ZM77.652 24.877a2.411 2.411 0 0 1-.016.3.8.8 0 0 1-.046.202.278.278 0 0 1-.075.112.158.158 0 0 1-.101.037h-1.968v6.336a.163.163 0 0 1-.039.108.268.268 0 0 1-.13.078 1.255 1.255 0 0 1-.247.05 3.34 3.34 0 0 1-.386.019 3.382 3.382 0 0 1-.385-.019 1.265 1.265 0 0 1-.245-.05.25.25 0 0 1-.13-.078.162.162 0 0 1-.04-.108v-6.336h-1.97a.147.147 0 0 1-.101-.037.278.278 0 0 1-.075-.112.91.91 0 0 1-.046-.201 3.015 3.015 0 0 1 0-.61.907.907 0 0 1 .046-.203.256.256 0 0 1 .075-.11.154.154 0 0 1 .101-.033h5.54a.166.166 0 0 1 .101.033.256.256 0 0 1 .075.11.799.799 0 0 1 .046.203 2.555 2.555 0 0 1 .016.309ZM80.186 31.864a.164.164 0 0 1-.042.108.248.248 0 0 1-.13.079 1.242 1.242 0 0 1-.243.05 3.348 3.348 0 0 1-.387.018 3.392 3.392 0 0 1-.386-.019 1.254 1.254 0 0 1-.247-.05.266.266 0 0 1-.13-.078.162.162 0 0 1-.04-.108V24.44a.162.162 0 0 1 .04-.108.262.262 0 0 1 .134-.08 1.324 1.324 0 0 1 .245-.049 4.03 4.03 0 0 1 .771 0 1.261 1.261 0 0 1 .243.05.248.248 0 0 1 .13.079.164.164 0 0 1 .042.108v7.424ZM87.13 24.877a2.411 2.411 0 0 1-.017.3.798.798 0 0 1-.046.202.278.278 0 0 1-.075.112.158.158 0 0 1-.101.037h-1.968v6.336a.163.163 0 0 1-.039.108.268.268 0 0 1-.13.078 1.255 1.255 0 0 1-.247.05 3.341 3.341 0 0 1-.386.019 3.383 3.383 0 0 1-.386-.019 1.265 1.265 0 0 1-.244-.05.25.25 0 0 1-.13-.078.162.162 0 0 1-.04-.108v-6.336h-1.97a.147.147 0 0 1-.102-.037.278.278 0 0 1-.074-.112.912.912 0 0 1-.046-.201 3.022 3.022 0 0 1 0-.61.908.908 0 0 1 .046-.203.256.256 0 0 1 .074-.11.154.154 0 0 1 .102-.033h5.54a.166.166 0 0 1 .101.033.256.256 0 0 1 .075.11.798.798 0 0 1 .046.203 2.555 2.555 0 0 1 .016.309ZM94.473 29.154a3.666 3.666 0 0 1-.214 1.294 2.558 2.558 0 0 1-.624.966 2.734 2.734 0 0 1-1.022.601 4.873 4.873 0 0 1-2.726.021 2.596 2.596 0 0 1-.997-.562 2.485 2.485 0 0 1-.623-.94 3.67 3.67 0 0 1-.215-1.313V24.44a.172.172 0 0 1 .037-.108.235.235 0 0 1 .131-.08 1.351 1.351 0 0 1 .245-.049 3.388 3.388 0 0 1 .39-.018 3.255 3.255 0 0 1 .38.018 1.315 1.315 0 0 1 .245.05.268.268 0 0 1 .131.079.174.174 0 0 1 .04.108v4.641a2.573 2.573 0 0 0 .113.811 1.504 1.504 0 0 0 .332.568 1.361 1.361 0 0 0 .516.336 1.923 1.923 0 0 0 .672.114 1.86 1.86 0 0 0 .674-.116 1.306 1.306 0 0 0 .504-.338 1.49 1.49 0 0 0 .319-.545 2.268 2.268 0 0 0 .112-.738V24.44a.172.172 0 0 1 .037-.108.235.235 0 0 1 .127-.08 1.311 1.311 0 0 1 .246-.049 3.387 3.387 0 0 1 .386-.018 3.22 3.22 0 0 1 .38.018 1.295 1.295 0 0 1 .24.05.235.235 0 0 1 .126.079.17.17 0 0 1 .038.108v4.714ZM101.41 24.877a2.407 2.407 0 0 1-.017.3.797.797 0 0 1-.045.202.278.278 0 0 1-.075.112.158.158 0 0 1-.101.037h-1.968v6.336a.163.163 0 0 1-.04.108.268.268 0 0 1-.13.078 1.255 1.255 0 0 1-.247.05 3.34 3.34 0 0 1-.385.019 3.383 3.383 0 0 1-.386-.019 1.265 1.265 0 0 1-.245-.05.25.25 0 0 1-.13-.078.162.162 0 0 1-.04-.108v-6.336h-1.97a.147.147 0 0 1-.1-.037.278.278 0 0 1-.075-.112.91.91 0 0 1-.046-.201 3.025 3.025 0 0 1 0-.61.907.907 0 0 1 .046-.203.256.256 0 0 1 .074-.11.154.154 0 0 1 .102-.033h5.54a.166.166 0 0 1 .101.033.256.256 0 0 1 .075.11.797.797 0 0 1 .045.203 2.551 2.551 0 0 1 .017.309ZM106.998 31.455a2.304 2.304 0 0 1-.015.295.77.77 0 0 1-.045.193.251.251 0 0 1-.077.105.159.159 0 0 1-.1.034h-3.947a.498.498 0 0 1-.338-.119.484.484 0 0 1-.137-.385v-6.852a.484.484 0 0 1 .137-.386.498.498 0 0 1 .338-.118h3.922a.162.162 0 0 1 .098.03.217.217 0 0 1 .072.107.802.802 0 0 1 .046.195 2.373 2.373 0 0 1 .017.3 2.279 2.279 0 0 1-.017.288.743.743 0 0 1-.046.191.238.238 0 0 1-.072.106.15.15 0 0 1-.098.033h-2.805v1.92h2.374a.179.179 0 0 1 .102.033.273.273 0 0 1 .074.104.71.71 0 0 1 .046.188 2.908 2.908 0 0 1 0 .581.676.676 0 0 1-.046.184.216.216 0 0 1-.074.1.178.178 0 0 1-.102.031h-2.374v2.216h2.83a.162.162 0 0 1 .1.035.227.227 0 0 1 .076.106.732.732 0 0 1 .046.191 2.328 2.328 0 0 1 .014.294Z" class="cls-1"/></svg>