<svg width="24" height="24" viewBox="0 0 24 24" fill="none" xmlns="http://www.w3.org/2000/svg">
<g clip-path="url(#clip0_7_182)">
<path d="M24 0H0V24H24V0Z" fill="#3178C6"/>
<path d="M14 11H6V12.904H8.86934V21.5H11.1427V12.904H14V11Z" fill="white"/>
<path d="M21.4901 13.4969C21.4901 13.4969 20.3883 12.7666 19.1428 12.7666C17.8973 12.7666 17.449 13.3548 17.449 13.9834C17.449 15.6058 22 15.4434 22 18.7084C22 23.7378 15.061 21.5071 15.061 21.5071V19.0943C15.061 19.0943 16.3879 20.0881 17.9793 20.0881C19.5707 20.0881 19.5103 19.0539 19.5103 18.9118C19.5103 17.4113 15 17.4113 15 14.0851C15 9.56293 21.5715 11.347 21.5715 11.347L21.4901 13.4969Z" fill="white"/>
</g>
<defs>
<clipPath id="clip0_7_182">
<rect width="24" height="24" rx="2" fill="white"/>
</clipPath>
</defs>
</svg>
