<svg width="22" height="24" viewBox="0 0 22 24" fill="none" xmlns="http://www.w3.org/2000/svg">
<g clip-path="url(#clip0_8_375)">
<path d="M7.96466 0.0299724C7.94431 0.0266037 7.9247 0.0336327 7.90434 0.0328447C7.86096 0.0311637 7.81822 0.0299647 7.77604 0.0395468C7.74911 0.0457055 7.72598 0.0586118 7.70041 0.0692277C7.66352 0.0843303 7.62869 0.0998122 7.59604 0.123802C7.58714 0.130348 7.57582 0.131941 7.56732 0.139121C7.55256 0.151585 7.54589 0.170182 7.53285 0.184121C7.51595 0.201953 7.49462 0.214094 7.48019 0.234866C7.47095 0.248257 7.46974 0.264013 7.462 0.277951C7.44775 0.303394 7.43799 0.32888 7.42849 0.356462C7.41564 0.393873 7.40615 0.429904 7.40264 0.468483C7.40116 0.483979 7.39306 0.497765 7.39306 0.513483V4.33657C3.80466 4.5899 0.960938 7.58272 0.960938 11.234C0.960938 15.0508 4.06599 18.1564 7.88328 18.1564C9.19568 18.1564 10.4201 17.7823 11.467 17.1453L16.619 23.34C16.7161 23.4562 16.8556 23.5171 16.9963 23.5171C17.107 23.5171 17.2182 23.4787 17.3093 23.4032C17.5177 23.2306 17.5456 22.9221 17.3725 22.7138L12.2741 16.5814C13.4577 15.6079 14.311 14.2493 14.6467 12.6999L20.9371 10.0784C21.1195 10.0024 21.2387 9.82402 21.2387 9.62646V2.65721C21.2387 2.62204 21.2276 2.58991 21.2205 2.55667C21.2159 2.53453 21.2168 2.51209 21.209 2.49061C21.1882 2.43301 21.1568 2.381 21.1171 2.3355C21.1151 2.33315 21.1144 2.33017 21.1123 2.32784C21.1016 2.316 21.0866 2.31159 21.075 2.30104C21.043 2.27173 21.0098 2.24455 20.9706 2.22444C20.9486 2.21315 20.9258 2.20731 20.9026 2.19955C20.8778 2.19115 20.8555 2.1781 20.8289 2.1737L7.96466 0.0299724ZM9.97338 1.35891L19.6675 2.97412L16.4859 5.85316L9.97338 1.35891ZM8.37349 1.44604L16.2485 6.8805C16.3328 6.93835 16.43 6.96763 16.5271 6.96763C16.6457 6.96763 16.7633 6.92414 16.8565 6.83933L20.2583 3.76114V9.29901L14.7884 11.5787C14.7941 11.4637 14.8056 11.3504 14.8056 11.234C14.8056 7.5825 11.9622 4.58958 8.37349 4.33657V1.44604ZM7.39306 5.31699V14.9862C7.39306 15.15 7.47508 15.3029 7.61136 15.3941C7.69323 15.4485 7.78769 15.4765 7.88328 15.4765C7.94701 15.4765 8.01158 15.4641 8.07285 15.4391L13.492 13.1805C12.6836 15.5027 10.4775 17.1759 7.88328 17.1759C4.6067 17.1759 1.94136 14.5106 1.94136 11.234C1.94136 8.12308 4.34575 5.56787 7.39306 5.31699ZM8.37349 5.31699C8.68833 5.34287 8.99541 5.39503 9.29455 5.46827V6.8087L8.37349 6.82114V5.31699ZM10.275 5.79859C10.62 5.95099 10.9484 6.1338 11.2554 6.34625V6.78093L10.275 6.79433V5.79859ZM12.681 7.74221C13.008 8.19019 13.2727 8.68456 13.4652 9.21476L12.2358 9.22816V7.74795L12.681 7.74221ZM11.2554 7.76135V9.23965L10.275 9.25114V7.77572L11.2554 7.76135ZM9.29455 7.78912V9.26167L8.37349 9.27221V7.80157L9.29455 7.78912ZM13.7275 10.1894C13.7881 10.5292 13.8252 10.877 13.8252 11.234C13.8252 11.38 13.8136 11.5234 13.8032 11.6668L12.2358 11.6831V10.2095L13.7122 10.1923C13.7177 10.1923 13.7221 10.1897 13.7275 10.1894ZM11.2554 10.2201V11.6936L10.275 11.7041V10.2316L11.2554 10.2201ZM9.29455 10.2421V11.7137L8.37349 11.7233V10.2526L9.29455 10.2421ZM11.2554 12.674V13.0503L10.275 13.4591V12.6845L11.2554 12.674ZM9.29455 12.6941V13.6851C9.29455 13.7447 9.30863 13.7998 9.32806 13.8526L8.37349 14.2509V12.7037L9.29455 12.6941Z" fill="black"/>
</g>
<defs>
<clipPath id="clip0_8_375">
<rect width="20.4255" height="24" fill="white" transform="translate(0.917175)"/>
</clipPath>
</defs>
</svg>
