<svg width="24" height="24" viewBox="0 0 24 24" fill="none" xmlns="http://www.w3.org/2000/svg">
<g clip-path="url(#clip0_8_370)">
<path d="M12 0.299988C5.53844 0.299988 0.299988 5.53844 0.299988 12C0.299988 17.5246 4.13039 22.152 9.27974 23.3787C9.01334 23.3152 8.74919 23.2441 8.48999 23.1631V20.4825C8.48999 20.4825 8.05124 20.6287 7.46624 20.6287C5.82959 20.6287 5.14964 19.1685 4.97999 18.435C4.87694 17.9881 4.60784 17.5647 4.31894 17.3059C3.97379 16.9981 3.81224 16.9972 3.80999 16.8919C3.80549 16.671 4.10609 16.68 4.24874 16.68C4.97999 16.68 5.53439 17.458 5.79179 17.8603C6.42944 18.8535 7.11389 19.02 7.46624 19.02C7.90499 19.02 8.28389 18.9543 8.54489 18.8283C8.66549 17.9787 9.04349 17.2218 9.65999 16.68C6.91634 16.1314 4.97999 14.5578 4.97999 12C4.97999 10.6824 5.50874 9.47144 6.38984 8.49359C6.29984 8.23844 6.14999 7.72229 6.14999 6.88124C6.14999 6.32549 6.18869 5.64329 6.44249 4.97999C6.44249 4.97999 8.11109 4.99169 9.68474 6.48209C10.411 6.27059 11.1882 6.14999 12 6.14999C12.8118 6.14999 13.5889 6.27059 14.3152 6.48209C15.8889 4.99169 17.5575 4.97999 17.5575 4.97999C17.8126 5.64329 17.85 6.32549 17.85 6.88124C17.85 7.78799 17.7294 8.31674 17.6556 8.54489C18.5097 9.51374 19.02 10.7058 19.02 12C19.02 14.5578 17.0836 16.1314 14.34 16.68C15.0726 17.3235 15.51 18.2608 15.51 19.3125V23.1631C15.2508 23.2446 14.9871 23.3152 14.7202 23.3787C19.8696 22.152 23.7 17.5246 23.7 12C23.7 5.53844 18.4615 0.299988 12 0.299988ZM12.8158 23.6685C12.5463 23.6874 12.2745 23.7 12 23.7C12.2745 23.7 12.5458 23.6869 12.8158 23.6685ZM12 23.7C11.7255 23.7 11.4537 23.6874 11.1841 23.6685C11.4541 23.6869 11.7255 23.7 12 23.7ZM11.0046 23.655C10.4569 23.6086 9.91964 23.5249 9.39629 23.4057C9.92009 23.5245 10.4569 23.6086 11.0046 23.655Z" fill="black"/>
</g>
<defs>
<clipPath id="clip0_8_370">
<rect width="24" height="24" fill="white"/>
</clipPath>
</defs>
</svg>
