<svg width="21" height="24" viewBox="0 0 21 24" fill="none" xmlns="http://www.w3.org/2000/svg">
<g clip-path="url(#clip0_7_199)">
<path d="M10.3675 23.6831C10.0544 23.6831 9.744 23.6013 9.46964 23.4431L6.61145 21.7506C6.18436 21.5116 6.39273 21.4271 6.53345 21.3786C7.10291 21.1795 7.218 21.1342 7.82564 20.7889C7.88945 20.7524 7.97291 20.7655 8.03836 20.8042L10.2344 22.1073C10.3135 22.1504 10.4264 22.1504 10.4995 22.1073L19.0615 17.1649C19.1405 17.1197 19.1924 17.028 19.1924 16.9337V7.05383C19.1924 6.95511 19.1411 6.86729 19.0598 6.8182L10.5016 1.87965C10.4225 1.83274 10.3173 1.83274 10.2382 1.87965L1.68109 6.81765C1.59818 6.86456 1.54527 6.95674 1.54527 7.05111V16.9315C1.54527 17.0258 1.59655 17.1158 1.67836 17.1606L4.02327 18.5149C5.29636 19.1515 6.07418 18.4015 6.07418 17.6471V7.89601C6.07418 7.75692 6.18327 7.64947 6.32291 7.64947H7.40727C7.54254 7.64947 7.65382 7.75638 7.65382 7.89601V17.652C7.65382 19.3495 6.72818 20.3247 5.11854 20.3247C4.62327 20.3247 4.23327 20.3247 3.14455 19.7891L0.898363 18.4947C0.343091 18.1729 0 17.5724 0 16.932V7.05165C0 6.40856 0.343091 5.80856 0.897818 5.49111L9.46909 0.546559C10.0113 0.240014 10.7313 0.240014 11.2696 0.546559L19.83 5.49329C20.382 5.81238 20.7273 6.41074 20.7273 7.05383V16.9342C20.7273 17.5751 20.382 18.1729 19.8295 18.4947L11.2691 23.4387C10.9947 23.5975 10.6838 23.6787 10.3669 23.6787" fill="#21A366"/>
<path d="M13.0123 16.8747C9.26617 16.8747 8.48071 15.1549 8.48071 13.7127C8.48071 13.5758 8.59144 13.4662 8.72889 13.4662H9.83508C9.95726 13.4662 10.0603 13.5551 10.0794 13.6756C10.2463 14.8025 10.7438 15.3709 13.0091 15.3709C14.8134 15.3709 15.5809 14.9634 15.5809 14.0062C15.5809 13.4552 15.3622 13.0462 12.5591 12.7718C10.2142 12.5405 8.76544 12.024 8.76544 10.1487C8.76544 8.42124 10.2229 7.39252 12.6638 7.39252C15.4053 7.39252 16.764 8.34433 16.9353 10.3887C16.9418 10.4596 16.9162 10.5278 16.8687 10.5796C16.8218 10.6287 16.7553 10.6587 16.6865 10.6587H15.5743C15.4587 10.6587 15.3578 10.5774 15.3343 10.4656C15.0665 9.28034 14.4191 8.90124 12.6594 8.90124C10.6898 8.90124 10.4607 9.58688 10.4607 10.1012C10.4607 10.7247 10.7307 10.9069 13.3882 11.2587C16.02 11.6078 17.2696 12.1009 17.2696 13.9505C17.2696 15.8149 15.7134 16.8845 13.0003 16.8845" fill="#21A366"/>
</g>
<defs>
<clipPath id="clip0_7_199">
<rect width="20.7273" height="24" fill="white"/>
</clipPath>
</defs>
</svg>
