<svg width="25" height="24" viewBox="0 0 25 24" fill="none" xmlns="http://www.w3.org/2000/svg">
<g clip-path="url(#clip0_8_381)">
<path d="M12.7645 4.62106e-05C11.7824 0.00320409 11.1016 0.0897301 10.2787 0.231835C7.84835 0.654991 7.40561 1.54362 7.40561 3.1813V5.68424H13.0898V6.94739H7.18961H4.44226C2.77742 6.94739 1.32037 7.73181 0.858691 9.61201C0.337009 11.7701 0.31364 13.1217 0.858691 15.3751C1.27237 17.0558 2.18374 18.3158 3.84921 18.3158H6.14309V15.0922C6.14309 13.2189 7.83951 11.3684 9.7835 11.3684H14.3536C15.9471 11.3684 17.5115 10.1924 17.5115 8.60401V3.1813C17.5115 1.64088 16.4005 0.488886 14.8475 0.230572C14.886 0.226782 13.7384 -0.00374325 12.7645 4.62106e-05ZM9.61676 2.52635C10.1353 2.52635 10.5641 2.95393 10.5641 3.47498C10.5641 4.00108 10.1353 4.42108 9.61676 4.42108C9.08813 4.42108 8.6694 4.00171 8.6694 3.47498C8.6694 2.95582 9.08813 2.52635 9.61676 2.52635Z" fill="#0277BD"/>
<path d="M12.1526 23.9999C13.1347 23.9968 13.8155 23.9102 14.6385 23.7681C17.0688 23.345 17.5115 22.4564 17.5115 20.8187V18.3157H11.8273V17.0526H17.7281H20.4755C22.1403 17.0526 23.5974 16.2682 24.059 14.388C24.5807 12.2299 24.6041 10.8783 24.059 8.62482C23.6447 6.9442 22.7334 5.6842 21.0679 5.6842H18.774V8.90777C18.774 10.781 17.0776 12.6315 15.1336 12.6315H10.5635C8.97005 12.6315 7.40564 13.8075 7.40564 15.396V20.8187C7.40564 22.3591 8.51658 23.5111 10.0696 23.7694C10.0311 23.7732 11.1787 24.0037 12.1526 23.9999ZM15.301 21.4736C14.7825 21.4736 14.3536 21.046 14.3536 20.525C14.3536 19.9989 14.7825 19.5789 15.301 19.5789C15.8296 19.5789 16.2483 19.9983 16.2483 20.525C16.2483 21.0441 15.829 21.4736 15.301 21.4736Z" fill="#FFC107"/>
</g>
<defs>
<clipPath id="clip0_8_381">
<rect width="24.6315" height="24" fill="white" transform="translate(0.285706)"/>
</clipPath>
</defs>
</svg>
