<svg width="27" height="24" viewBox="0 0 27 24" fill="none" xmlns="http://www.w3.org/2000/svg">
<g clip-path="url(#clip0_7_283)">
<path d="M13.1429 17.7143C5.77143 17.7143 0 15.2 0 12C0 8.79999 5.77143 6.28571 13.1429 6.28571C20.5143 6.28571 26.2857 8.79999 26.2857 12C26.2857 15.2 20.5143 17.7143 13.1429 17.7143ZM13.1429 7.42856C5.94286 7.42856 1.14286 9.77142 1.14286 12C1.14286 14.2286 5.94286 16.5714 13.1429 16.5714C20.3429 16.5714 25.1429 14.2286 25.1429 12C25.1429 9.77142 20.3429 7.42856 13.1429 7.42856Z" fill="#80DEEA"/>
<path d="M8.05716 23.7714C7.48573 23.7714 7.02859 23.6571 6.57145 23.3714C3.77145 21.7714 4.5143 15.5429 8.17145 9.14286C9.88573 6.17143 12 3.65715 14.0572 2.05715C16.2857 0.342861 18.2857 -0.171424 19.6572 0.628576C21.0857 1.42858 21.6 3.42858 21.2572 6.22858C20.9143 8.85715 19.7714 11.9429 18.0572 14.9143C16.3429 17.8857 14.2286 20.4 12.1714 22C10.6857 23.1429 9.25716 23.7714 8.05716 23.7714ZM18.2286 1.37143C17.3143 1.37143 16.1143 1.88572 14.8 2.91429C12.8572 4.45715 10.8572 6.85715 9.20002 9.71429C5.60002 15.9429 5.25716 21.3143 7.14288 22.4C8.1143 22.9714 9.71431 22.4571 11.4857 21.0857C13.4286 19.5429 15.4286 17.1429 17.0857 14.2857C18.7429 11.4286 19.8286 8.51429 20.1714 6.05715C20.4572 3.77143 20.1143 2.17143 19.1429 1.6C18.8572 1.48572 18.5714 1.37143 18.2286 1.37143Z" fill="#80DEEA"/>
<path d="M18.2857 23.7714C15.4286 23.7714 11.3143 20.2857 8.22858 14.8571C4.51429 8.45712 3.77143 2.22855 6.57143 0.628551C9.37143 -0.971449 14.4 2.74284 18.1143 9.14284C19.8286 12.1143 20.9714 15.2 21.3143 17.8286C21.7143 20.6286 21.1429 22.5714 19.7143 23.4286C19.2571 23.6571 18.8 23.7714 18.2857 23.7714ZM7.14286 1.59998C5.25715 2.68569 5.60001 8.05712 9.20001 14.2857C12.8 20.5143 17.2571 23.4857 19.1429 22.4C20.1143 21.8286 20.4571 20.2286 20.1714 17.9428C19.8286 15.4857 18.7429 12.5714 17.0857 9.71427C13.4857 3.48569 9.02858 0.514265 7.14286 1.59998Z" fill="#80DEEA"/>
<path d="M13.1428 14.2857C14.4052 14.2857 15.4285 13.2624 15.4285 12C15.4285 10.7376 14.4052 9.71429 13.1428 9.71429C11.8805 9.71429 10.8571 10.7376 10.8571 12C10.8571 13.2624 11.8805 14.2857 13.1428 14.2857Z" fill="#80DEEA"/>
</g>
<defs>
<clipPath id="clip0_7_283">
<rect width="26.2857" height="24" fill="white"/>
</clipPath>
</defs>
</svg>
