<svg width="23" height="24" viewBox="0 0 23 24" fill="none" xmlns="http://www.w3.org/2000/svg">
<g clip-path="url(#clip0_7_256)">
<path d="M22.03 0H0.556274L2.45101 21.4737L11.2931 24L20.1352 21.4737L22.03 0Z" fill="#0277BD"/>
<path d="M11.2932 1.89471V22.0421L18.3668 20.021L19.9458 1.89471H11.2932Z" fill="#039BE5"/>
<path d="M17.0405 5.05261H11.2932V7.57893H14.3879L14.1984 10.1052H11.2932V12.6316H14.0721L13.8826 15.4737L11.2932 16.3579V19.0105L16.2826 17.3684L16.7247 10.1052L17.0405 5.05261Z" fill="white"/>
<path d="M11.2931 5.05261V7.57893H5.67208L5.4826 5.05261H11.2931ZM8.38787 10.1052L8.51418 12.6316H11.2931V10.1052H8.38787ZM8.6405 13.8947H6.11418L6.30366 17.3684L11.2931 19.0105V16.3579L8.70366 15.4737L8.6405 13.8947Z" fill="#EEEEEE"/>
</g>
<defs>
<clipPath id="clip0_7_256">
<rect width="22.1053" height="24" fill="white" transform="translate(0.105225)"/>
</clipPath>
</defs>
</svg>
