<svg width="33" height="24" viewBox="0 0 33 24" fill="none" xmlns="http://www.w3.org/2000/svg">
<g clip-path="url(#clip0_7_275)">
<path d="M28.4222 13.7863C27.3036 13.7922 26.3349 14.0605 25.5233 14.4612C25.2266 13.8685 24.9255 13.3471 24.8753 12.9595C24.8164 12.5071 24.748 12.2366 24.8193 11.6977C24.8906 11.1588 25.2026 10.3951 25.1982 10.3377C25.1938 10.2802 25.1284 10.006 24.4833 10.001C23.8382 9.99659 23.2862 10.1253 23.2215 10.2955C23.1568 10.4657 23.0324 10.8489 22.9553 11.2489C22.8426 11.8337 21.6674 13.9202 21.0005 15.0111C20.7823 14.5849 20.5968 14.2096 20.5583 13.9129C20.4994 13.4605 20.431 13.19 20.5023 12.6511C20.5736 12.1122 20.8855 11.3486 20.8812 11.2911C20.8768 11.2337 20.8114 10.9595 20.1663 10.9544C19.5212 10.95 18.9692 11.0788 18.9045 11.2489C18.8398 11.4191 18.7699 11.8169 18.6383 12.2024C18.506 12.5871 16.9445 16.067 16.5351 16.9696C16.3264 17.4292 16.1453 17.7986 16.0173 18.0503L16.0165 18.0488C16.0165 18.0488 16.0085 18.0656 15.9954 18.0939C15.8856 18.3085 15.8209 18.427 15.8209 18.427C15.8209 18.427 15.8216 18.4285 15.8231 18.4314C15.7358 18.5892 15.6427 18.7354 15.5969 18.7354C15.5649 18.7354 15.5002 18.3157 15.6107 17.7397C15.8435 16.5325 16.4013 14.6503 16.3962 14.5849C16.3933 14.5514 16.5002 14.2234 16.0318 14.0518C15.5765 13.8853 15.4144 14.1631 15.3729 14.1638C15.3329 14.1645 15.3031 14.262 15.3031 14.262C15.3031 14.262 15.81 12.1449 14.3358 12.1449C13.4137 12.1449 12.1366 13.1536 11.5075 14.0678C11.1104 14.2845 10.2603 14.7485 9.35919 15.2438C9.01302 15.4343 8.65957 15.6285 8.3243 15.8132C8.30176 15.7878 8.27848 15.763 8.25521 15.7376C6.46688 13.83 3.1622 12.4809 3.30184 9.91587C3.35275 8.98352 3.67711 6.52829 9.65301 3.55088C14.5482 1.11165 18.4674 1.78291 19.1445 3.27016C20.1117 5.39594 17.05 9.3457 11.9664 9.91587C10.0297 10.1333 9.00938 9.38206 8.75557 9.10279C8.48866 8.80825 8.44866 8.79516 8.34903 8.85043C8.18685 8.94061 8.28939 9.20024 8.34903 9.35515C8.50103 9.75005 9.12356 10.4504 10.1854 10.7995C11.1199 11.1064 13.394 11.2744 16.1438 10.2104C19.2245 9.01915 21.6295 5.7043 20.9226 2.93416C20.2041 0.116756 15.5322 -0.809775 11.1104 0.761108C8.47557 1.69637 5.62689 3.16398 3.5782 5.07958C1.1426 7.35736 0.754244 9.3406 0.914241 10.169C1.48296 13.1129 5.54035 15.03 7.16505 16.4503C7.08505 16.4947 7.00941 16.5361 6.94105 16.5739C6.12652 16.9768 3.03348 18.5957 2.25967 20.3055C1.38187 22.2451 2.39931 23.6371 3.07275 23.8247C5.15926 24.4051 7.30032 23.3607 8.45157 21.6444C9.6021 19.9288 9.46174 17.6939 8.93375 16.6743C8.9272 16.6619 8.91993 16.6496 8.91338 16.6365C9.12356 16.5121 9.3381 16.3856 9.55046 16.2605C9.965 16.0169 10.3723 15.79 10.725 15.598C10.5272 16.139 10.3824 16.7885 10.3075 17.7259C10.2188 18.827 10.6704 20.2502 11.261 20.8102C11.5213 21.0568 11.8341 21.0626 12.0319 21.0626C12.7191 21.0626 13.0326 20.491 13.378 19.8146C13.8013 18.9855 14.1773 18.0197 14.1773 18.0197C14.1773 18.0197 13.706 20.6277 14.9904 20.6277C15.4587 20.6277 15.9293 20.0204 16.1394 19.7113C16.1402 19.715 16.1402 19.7164 16.1402 19.7164C16.1402 19.7164 16.1525 19.6961 16.1765 19.6561C16.2253 19.5819 16.2529 19.5346 16.2529 19.5346C16.2529 19.5346 16.2536 19.5295 16.2551 19.5208C16.4434 19.1943 16.8609 18.4495 17.4863 17.2212C18.295 15.6343 19.0703 13.646 19.0703 13.646C19.0703 13.646 19.1423 14.1318 19.3787 14.9361C19.5176 15.4089 19.8128 15.9318 20.0463 16.4336C19.8587 16.6939 19.7438 16.843 19.7438 16.843C19.7438 16.843 19.7445 16.8459 19.7467 16.851C19.5968 17.0503 19.4288 17.2648 19.2528 17.4743C18.6143 18.2343 17.8543 19.1026 17.7525 19.3528C17.6325 19.6481 17.6609 19.8648 17.8929 20.0401C18.0623 20.1673 18.3634 20.1877 18.6783 20.1666C19.2521 20.1281 19.655 19.9855 19.8543 19.899C20.1648 19.7892 20.5263 19.6168 20.8652 19.3673C21.4914 18.907 21.8688 18.2488 21.8324 17.3761C21.8121 16.8954 21.6594 16.419 21.4652 15.9696C21.5219 15.8881 21.5786 15.8052 21.6361 15.7223C22.623 14.2794 23.3888 12.694 23.3888 12.694C23.3888 12.694 23.4608 13.1798 23.6971 13.9842C23.8164 14.3907 24.0528 14.8351 24.2651 15.27C23.3371 16.0241 22.7619 16.9005 22.5619 17.475C22.1924 18.5383 22.4819 19.0197 23.0244 19.1295C23.2702 19.179 23.6179 19.0663 23.879 18.9557C24.204 18.8481 24.5946 18.6685 24.9597 18.4001C25.5858 17.9397 26.188 17.2954 26.1516 16.4234C26.1349 16.0263 26.0273 15.6321 25.8811 15.254C26.668 14.926 27.6862 14.7442 28.9836 14.8954C31.7668 15.2205 32.3123 16.9579 32.2083 17.6852C32.1035 18.4125 31.5203 18.8124 31.3247 18.9332C31.1297 19.0539 31.0701 19.0961 31.0861 19.1855C31.1101 19.3157 31.2003 19.3113 31.3668 19.283C31.5959 19.2444 32.8279 18.6917 32.881 17.3492C32.9472 15.643 31.3145 13.7711 28.4222 13.7863ZM6.97014 21.0182C6.04798 22.024 4.76072 22.4037 4.20801 22.0837C3.61165 21.7382 3.84801 20.2575 4.9789 19.1899C5.66834 18.5397 6.55851 17.9405 7.14905 17.5717C7.28359 17.491 7.48068 17.3725 7.72068 17.2285C7.76067 17.2059 7.78322 17.1936 7.78322 17.1936L7.78249 17.1921C7.82904 17.1645 7.87631 17.1361 7.92503 17.1063C8.33739 18.6255 7.93813 19.963 6.97014 21.0182ZM13.6864 16.4532C13.3657 17.2357 12.6937 19.2386 12.2842 19.131C11.933 19.0386 11.7192 17.5165 12.2144 16.0183C12.4631 15.2641 12.9955 14.3631 13.3082 14.0133C13.8115 13.4504 14.3657 13.2664 14.5002 13.4947C14.6711 13.7856 13.8878 15.9623 13.6864 16.4532ZM19.2347 19.1004C19.0987 19.1717 18.9736 19.2161 18.9161 19.1819C18.8732 19.1564 18.9721 19.0626 18.9721 19.0626C18.9721 19.0626 19.6659 18.3157 19.9394 17.9761C20.0987 17.7783 20.2827 17.5434 20.4834 17.2816C20.4848 17.3077 20.4856 17.3339 20.4856 17.3594C20.4841 18.2539 19.6201 18.8575 19.2347 19.1004ZM23.5088 18.1259C23.407 18.0539 23.4244 17.8205 23.7582 17.0925C23.8891 16.8067 24.1888 16.3259 24.708 15.8663C24.7684 16.0554 24.8048 16.2365 24.804 16.4052C24.7975 17.531 23.9946 17.9514 23.5088 18.1259Z" fill="#F06292"/>
</g>
<defs>
<clipPath id="clip0_7_275">
<rect width="32.7267" height="24" fill="white" transform="translate(0.21051)"/>
</clipPath>
</defs>
</svg>
